<?xml version="1.0" encoding="utf-8"?>
<!-- Generator: Adobe Illustrator 16.0.0, SVG Export Plug-In . SVG Version: 6.00 Build 0)  -->
<svg version="1.2" baseProfile="tiny" xmlns="http://www.w3.org/2000/svg" xmlns:xlink="http://www.w3.org/1999/xlink" x="0px"
	 y="0px" width="1600px" height="800px" viewBox="0 0 1600 800" xml:space="preserve">
<g id="Layer_2" display="none">
	<rect x="-0.48" y="-16.55" display="inline" fill="#1D2C35" width="1619.68" height="845.83"/>
</g>
<g id="Layer_1">
	<path fill="#60BF83" d="M242.65,128.06c-0.04,0.4-0.08,0.8-0.13,1.2c-0.32,0.59-1.26,1.12-1.64,1.71c-0.39,0.59-0.47,1.31-0.89,1.9
		c-0.84,1.2-2.57,1.99-3.67,2.97c-0.75,0.67-1.26,1.74-1.83,2.59c-1.26,1.85-3.28,3.26-4.81,4.87c-1.4,1.48-2.5,3.3-3.86,4.8
		c-0.25,0.44-0.5,0.89-0.76,1.33c-0.42,0.47-1.11,0.71-1.52,1.2c-0.74,1.07-1.48,2.15-2.21,3.23c-0.74,0.69-1.47,1.39-2.21,2.09
		c-1.52,1.82-2.86,3.76-4.43,5.56c-0.24,0.28-0.73,0.46-0.95,0.76c-0.65,0.88-0.95,1.65-1.58,2.4c-0.48,0.58-1.23,1.15-1.64,1.77
		c-0.31,0.47-0.49,1.12-0.89,1.52c-1.34,1.35-2.83,2.75-3.98,4.36c-0.21,0.42-0.42,0.84-0.63,1.26c-0.83,0.87-2.07,1.56-2.72,2.59
		c-0.58,0.93-1.1,2.09-1.83,2.91c-0.16,0.18-0.56,0.15-0.76,0.44c-0.25,0.46-0.51,0.93-0.76,1.39c-0.78,0.76-1.56,1.52-2.34,2.28
		c-0.46,0.6-1.69,2.34-2.21,2.72c-1.11,0.8-1.98,1.67-2.85,2.85c-0.24,0.32-0.83,0.5-1.08,0.82c-0.39,0.53-0.68,1.23-1.14,1.71
		c-0.32,0.21-0.63,0.42-0.95,0.63c-1.02,1.24-1.6,2.59-2.47,3.86c-0.34,0.27-0.67,0.55-1.01,0.82c-0.35,0.41-0.38,1.24-0.89,1.58
		c-1.29,0.86-1.94,2.12-3.1,3.1c0.19,0.08-0.11,0.6-0.25,0.76c-0.44,0.48-0.97,0.64-1.39,1.2c-0.36,0.46-0.72,0.93-1.08,1.39
		c-1.88,1.34-3.42,3.32-5,4.74c-0.37,0.34-0.88,0.36-1.26,0.76c-0.66,0.68-1.46,1.72-2.21,2.53c-0.3,0.19-0.59,0.38-0.88,0.57
		c-1.16,2.01-2.47,3.55-3.79,5.37c-0.97,0.86-1.94,1.73-2.91,2.59c-0.39,0.56-0.63,1.26-0.95,1.77c-0.62,1-1.79,1.93-2.53,2.85
		c-0.56,0.69-0.81,1.73-1.26,2.34c-0.27,0.17-0.55,0.34-0.82,0.5c-0.56,0.46-0.98,1.62-1.58,1.96c-0.17,0.02-0.34,0.04-0.51,0.06
		c-0.76,0.5-1.1,1.74-1.9,2.28c-1.74,1.19-4.73,4.45-5.94,6.01c-0.49,0.63-0.82,1.3-1.26,1.96c-0.63,0.67-1.26,1.35-1.9,2.02
		c-0.61,1.01-1.17,2.13-2.02,2.91c0.16,0.09-0.81,1.42-0.95,1.58c-0.04,0.06-0.08,0.13-0.13,0.19c-0.21,1.25-2.43,3.42-3.29,4.49
		c-0.15,0.32-0.3,0.63-0.44,0.95c-0.98,1.16-2.24,2.08-3.22,3.22c-0.51,0.59-0.72,1.15-1.2,1.83c-0.46,0.65-1.35,1.07-1.96,1.58
		c0.14,0.14-0.05,0.16-0.13,0.25c-0.46,0.61-0.93,1.22-1.39,1.83c-0.02,0.19-0.04,0.38-0.06,0.57c-0.86,1.24-2.58,2.93-3.79,4.62
		c-0.51,0.7-1.01,2.08-1.33,2.4c-0.38,0.39-1.01,0.55-1.39,0.95c0.15,0.1,0,0.19-0.06,0.25c-0.66,0.62-1.03,1.41-1.58,2.15
		c-0.04,0-0.08,0-0.13,0c-0.54,0.69-1.01,1.31-1.64,1.9c-2.01,1.89-3.68,3.69-5.25,5.69c-0.73,0.93-1.89,1.62-2.66,2.53
		c-1.36,1.62-3,3.59-4.17,5.37c-0.85,1.3-2.28,2.08-2.47,3.73c0.34,0.49,0.37,1.26,0.76,1.71c0.57,0.65,1.23,1.43,1.9,2.15
		c0.39,0.43,0.45,1.14,0.82,1.58c0.25,0.17,0.51,0.34,0.76,0.51c0.29,0.49,0.36,1.08,0.63,1.33c0.87,0.81,1.39,1.8,2.21,2.66
		c0.23,0.15,0.46,0.29,0.69,0.44c0,0.19,0,0.38,0,0.57c0.52,1.15,2.15,2.25,2.85,3.16c0.99,1.3,1.66,2.58,2.72,3.67
		c0.63,0.64,1.44,1.09,2.09,1.71c1.17,1.11,1.97,2.64,3.1,3.79c0.57,0.57,1.46,0.82,1.9,1.52c0.06,0.27,0.13,0.55,0.19,0.82
		c0.92,1.23,1.86,2.64,2.78,3.86c0.21,0.48,0.42,0.97,0.63,1.45c2.08,2.56,5.06,4.25,7.02,6.76c2.48,3.18,4.52,6.74,7.08,9.99
		c2.11,2.67,4.88,4.76,7.14,7.27c5.05,5.6,9.48,11.33,13.85,17.13c0.3,0.39,0.93,0.77,1.2,1.01c1.34,1.23,2.79,2.82,3.86,4.3
		c3.3,4.57,6.36,8.97,9.86,13.34c0.69,0.86,1.53,1.36,2.28,2.08c1.74,1.69,3.3,3.46,4.87,5.44c0.53,0.67,1.2,1.28,1.45,2.09
		c0.02,0.42,0.04,0.84,0.06,1.27c0.17,0.55,0.45,1,0.63,1.64c0,0.51,0,1.01,0,1.52c1.79,4.66,2.99,10.56,4.62,15.68
		c0.38,1.18,0.63,2.51,0.95,3.73c0.02,0.44,0.04,0.88,0.06,1.33c0.63,0.95,1.24,3.63,1.83,4.93c0.41,0.9,0.29,1.81,0.7,2.78
		c0.55,1.33,0.75,2,1.26,3.29c0.23,0.59,0.12,1.28,0.44,1.58c0,0.13,0,0.25,0,0.38c-0.06,0.83,0.51,2.18,0.44,3.22
		c-0.08,1.18,0.88,3.45,1.2,4.62c0.39,1.39,0.3,2.93,0.7,4.36c0.2,0.73,0.06,2.74,0.44,3.35c3.36,5.37,3.94,13.52,5.88,19.73
		c0.17,1.16,0.34,2.32,0.51,3.48c0.22,0.82,0.76,2.39,1.14,3.54c0.15,0.78,0.29,1.56,0.44,2.34c0.15,0.09,0.3,0.17,0.44,0.25
		c0.73,1.12,1.42,2.88,2.02,4.24c0.06,0.53,0.13,1.05,0.19,1.58c0.38,1.31,0.42,3.22,0.88,5.12c0.7,2.21,1.39,4.43,2.09,6.64
		c0.43,1.82,0.39,2.73,0.82,4.3c-0.19,0.68,0.21,2.36,0.51,3.04c0.04,0.61,0.08,1.22,0.13,1.83c0.96,3.05,2.24,5.56,3.22,8.54
		c-0.47,1.17,0.52,1.95,0.25,3.48c-0.28,1.62,0.75,4.21,1.26,6.26c0.86,3.39,1.48,7.23,3.16,9.67c0.1,0.7,0.21,1.39,0.32,2.09
		c0.54,1.92,1.16,4.02,1.52,5.88c0.24,1.24-0.79,2.07-0.19,3.16c0.47,0.86,1.43,1.71,2.02,2.28c0.23,0.53,0.46,1.05,0.7,1.58
		c0.23,0.29,0.92,0.8,1.26,1.2c0.08,0.27,0.17,0.55,0.25,0.82c1.35,1.38,2.21,3.21,3.48,4.68c0.9,1.04,2.26,1.74,3.03,2.91
		c0.19,0.44,0.38,0.89,0.57,1.33c1.48,1.94,3.28,3.77,4.87,5.63c1.25,1.46,1.99,3.26,3.22,4.87c1.14,1.01,2.28,2.02,3.41,3.03
		c2.94,4.79,5.8,8.95,9.17,13.47c0.97,0.93,1.94,1.85,2.91,2.78c1.51,2.15,3.29,4.31,4.49,6.39c0.23,0.57,0.46,1.14,0.7,1.71
		c0.72,1.18,1.6,2.12,2.21,3.35c0.29,0.57,0.46,1.3,0.95,1.83c3.6,3.88,7.15,8.08,9.36,11.7c0.86,1.4,0.86,4.06,1.64,6.07
		c0.64,1.63,1.48,4.27,2.02,5.94c-0.23,0.57,0.37,1.57,0.25,2.02c-0.13,0.49,0.05,0.92,0.19,1.83c0.35,2.39,0.25,5.92,0.7,8.28
		c0.38,1.99,0.91,4.13,1.77,5.75c-0.21,0.32,0.51,2.46,0.63,3.1c0.27,2.06,0.55,4.13,0.82,6.2c0.33,2.16,0.86,4.63,1.52,6.38
		c0.56,1.49,0.46,3,1.2,4.3c0.32,0.55,0.75,1.05,1.01,1.71c0,0.06,0,0.13,0,0.19c0.13,0.74,0.25,1.47,0.38,2.21
		c-0.08,0.55-0.17,1.09-0.25,1.64c0.49,1.88,1.9,3.28,4.11,2.4c1.21-0.48,2.22-1.96,3.1-2.85c1.27-1.29,3.09-2.2,4.24-3.6
		c0.78-0.97,1.56-1.94,2.34-2.91c1.6-1.17,3.23-2.23,4.74-3.6c0.62-0.57,1.04-1.38,1.64-1.96c0.85-0.81,2.26-1.07,3.22-1.77
		c1.13-0.82,1.41-2.74,2.47-3.67c0.88-0.77,2.18-1.46,3.22-2.28c1.34-1.05,2.46-2.41,3.67-3.61c0.49-0.48,1.34-0.46,1.9-0.88
		c0.38-0.29,0.36-0.72,0.63-1.14c0.17-0.09,0.34-0.17,0.51-0.25c0.14-0.15,0.69-4.99,0.95-5.63c0.33-0.83,1.03-1.39,1.39-2.15
		c0.35-0.74,0.22-1.72,0.5-2.4c0.21-0.51,0.87-1.21,1.14-1.71c0.21-0.74,0.42-1.48,0.63-2.21c0.59-1.12,1.41-2.36,1.9-3.48
		c0.61-1.42,1.07-3,1.52-4.43c0.22-0.71-0.03-1.71,0.25-2.59c0.41-1.32,1.33-2.53,1.77-3.73c0.04-0.34,0.08-0.67,0.13-1.01
		c0.32-0.53,0.63-1.05,0.95-1.58c0.02-0.25,0.04-0.51,0.06-0.76c0.44-0.86,0.88-1.73,1.33-2.59c0.15-0.48,0.29-0.97,0.44-1.46
		c0.63-1.16,1.26-2.32,1.9-3.47c0.19-0.84,0.38-1.69,0.57-2.53c0.52-1.25,1.18-2.47,1.71-3.73c0.19-0.46,0.03-0.92,0.25-1.45
		c0.66-1.58,1.95-3.27,2.72-4.8c0.48-0.96,0.35-1.96,0.82-2.91c0.86-1.73,1.98-3.66,2.78-5.44c0.27-0.99,0.55-1.98,0.82-2.97
		c1.76-4.74,3.25-10.34,5.69-14.48c0.1-0.51,0.21-1.01,0.32-1.52c0.3-0.9,0.82-2.09,1.14-2.91c0.06-0.38,0.13-0.76,0.19-1.14
		c0.9-1.45,1.65-3.16,2.47-4.68c0.27-0.8,0.55-1.6,0.82-2.4c0.5-0.98,0.91-2.33,1.52-3.35c0.23-0.27,0.46-0.55,0.7-0.82
		c0-0.25,0-0.51,0-0.76c0.19-0.12,0.38-0.25,0.57-0.38c0.55-0.86,0.67-1.88,1.14-2.85c0.27-0.55,0.84-1.21,1.07-1.77
		c1.29-3.12,1.81-6.64,2.97-9.8c0.73-2,2.13-3.86,3.1-5.63c0.15-0.55,0.3-1.1,0.44-1.64c0.32-0.61,0.63-1.22,0.95-1.83
		c0.23-0.63,0.13-0.99,0.38-1.64c0.34-0.46,0.67-0.93,1.01-1.39c0.36-0.72,0.68-1.67,0.95-2.34c0.23-0.57,0.09-1.11,0.25-1.58
		c0.14-0.42,0.57-0.78,0.7-1.07c0.1-0.59,0.21-1.18,0.31-1.77c0.34-1.08,0.92-2.41,1.39-3.54c0.15-0.57,0.29-1.14,0.44-1.71
		c1.89-3.46,4.21-7.12,6.01-10.75c0.75-1.52,1.2-3.1,1.77-4.74c0.28-0.82,0.11-1.58,0.5-2.46c0.59-1.32,1.22-2.66,1.83-3.86
		c0.39-0.75,0.13-1.85,0.57-2.53c0.52-0.81,1.03-1.92,1.45-2.84c0.08-0.34,0.17-0.68,0.25-1.01c2.3-3.69,3.86-8.04,5.82-12.07
		c0.1-0.59,0.21-1.18,0.31-1.77c0.4-1.27,0.8-2.53,1.2-3.79c0.13-0.39,0.12-1.57,0.13-1.58c0.81-0.77,1.54-2.6,1.9-3.73
		c-0.21-0.42,1.01-3.46,1.45-3.79c-0.08-0.21-0.08-0.26-0.19-0.51c0.04,0,0.08,0,0.13,0c0.12-0.18,0.05-0.05,0.25,0
		c0.81-2.01,1.44-4.75,2.27-6.32c0.02-0.36,0.04-0.72,0.06-1.07c0.71-0.86,0.83-2.21,1.27-3.35c0.28-0.72,0.85-1.67,1.14-2.4
		c0.13-0.67,0.25-1.35,0.38-2.02c1.76-4.04,4.14-8.06,5.82-12.45c0.48-1.24,0.7-2.85,1.07-4.11c0.06-0.53,0.13-1.05,0.19-1.58
		c0.19-0.21,0.38-0.42,0.57-0.63c0.94-2.12,1.47-3.93,2.53-5.88c0.15-0.28,0.55-0.41,0.7-0.76c0.46-1.58,0.93-3.16,1.39-4.74
		c0.61-1.11,1.52-2.25,1.96-3.41c0.22-0.59,0.22-1.34,0.51-1.83c0.45-0.79,1.33-1.54,1.71-2.34c0.57-1.21,0.74-2.65,1.2-4.11
		c0.49-1.54,1.97-2.57,1.52-4.36c0.13,0.06,0.25,0.13,0.38,0.19c0.89-3.56,2.57-7.89,4.11-11c0.04-0.38,0.08-0.76,0.13-1.14
		c0.34-0.93,0.97-1.95,1.26-2.91c0.06-0.59,0.13-1.18,0.19-1.77c0.16-0.58,0.85-1.28,1.01-1.9c0.7-2.6,1.72-5.73,2.91-8.28
		c0.41-0.89,0.22-1.59,0.51-2.66c0.35-1.3,0.77-2.85,1.26-4.24c1.19-3.34,2.62-6.59,3.98-9.86c1.01-2.43,1.14-4.99,1.96-7.65
		c0.58-1.87,1.65-3.57,2.4-5.25c0.06-0.48,0.13-0.97,0.19-1.45c0.34-0.95,1.05-2.23,1.46-3.23c0.29-1.03,0.59-2.06,0.88-3.1
		c0.67-1.4,1.7-2.91,2.47-4.24c0.77-1.34,1.47-3.13,2.02-4.55c0.06-0.36,0.13-0.72,0.19-1.08c0.19-0.38,0.71-0.95,0.89-1.33
		c0.39-0.82,0.31-1.53,0.57-2.28c1.11-3.22,1.7-7.42,3.1-10.68c0.61-1.43,1.51-3.15,2.4-4.43c0.83-1.17,1.44-3.52,2.02-4.87
		c0.06-0.4,0.13-0.8,0.19-1.2c0.49-1.67,1.23-3.79,1.9-5.37c0.36-0.86,0.22-1.56,0.63-2.34c1.02-1.91,1.96-3.87,3.1-5.75
		c0.35-0.57,1.02-1.23,1.26-1.83c1.11-2.73,1.18-5.85,2.28-8.35c0.56-1.27,0.8-2.6,1.33-3.98c0.32-0.44,0.63-0.89,0.95-1.33
		c0.31-0.73,0.2-1.58,0.57-2.4c0.5-1.11,1.14-2.58,1.2-4.11c0.89-0.33,0.53-0.6,0.89-1.45c0.29-0.32,0.59-0.63,0.88-0.95
		c0.04-0.69,0.08-1.39,0.13-2.09c-0.3-0.38-0.59-0.76-0.89-1.14c-0.66-0.47-1.6-0.5-2.27-0.89c-0.46-0.51-0.93-1.01-1.39-1.52
		c-0.81-0.63-1.61-1.32-2.4-1.9c-1.12-0.81-2.49-1.2-3.54-2.09c-1.1-0.93-2.05-2.18-3.22-3.03c-0.74-0.54-1.69-0.83-2.34-1.45
		c-0.52-0.51-0.84-1.3-1.39-1.77c-1.68-1.46-3.41-2.82-4.99-4.36c-0.4-0.21-0.8-0.42-1.2-0.63c-1.9-1.44-3.85-2.96-5.63-4.55
		c-1.64-1.47-3.06-3.32-4.81-4.68c-0.8-0.62-1.89-0.78-2.72-1.39c-1.16-0.85-2.28-1.46-3.54-2.28c-1.93-1.25-3.48-4.13-5.31-5.5
		c-1.05-0.79-2.02-1.69-3.04-2.47c-0.84-0.64-1.94-0.84-2.78-1.45c-1.51-1.09-2.72-2.57-4.11-3.79c-0.4-0.46-0.8-0.93-1.2-1.39
		c-1.19-0.74-2.61-1.1-3.73-1.96c-1.2-1.24-2.4-2.49-3.61-3.73c-0.33-0.26-0.56-0.11-1.01-0.32c-0.72-0.51-1.43-1.01-2.15-1.52
		c-0.73-0.46-1.77-0.56-2.47-0.88c-0.7-0.33-1.15-0.97-2.15-1.14c-0.33-0.06-3.29,0.87-3.86,1.01c-3.05,0.75-6.41,1.13-9.48,1.83
		c-1.41,0.32-3.02,0.43-4.36,0.7c-1.46,0.29-2.86-0.08-4.11,0.25c-0.73,0.2-1.4,0.62-2.03,0.88c-0.46,0.06-0.93,0.13-1.39,0.19
		c-1.55,0.61-3.48,0.9-5.06,1.33c-0.38,0-0.76,0-1.14,0c-1.43,0.32-2.77,0.31-4.05,0.7c-0.84,0.04-1.69,0.08-2.53,0.13
		c-1.83,0.67-3.67,1.35-5.5,2.02c-1.97,0.4-5.06,0.49-6.89,0.57c-0.97,0.04-2.52-0.27-3.29-0.06c-3.63,0.98-6.61,2.13-10.37,2.34
		c-0.91,0.05-4.03,0.37-4.55,0.06c-3.18-1.87-5.05-5.53-8.03-7.65c-1.12-0.8-2.47-1.28-3.6-2.02c-0.78-0.84-1.56-1.69-2.34-2.53
		c-0.93-1.04-2.26-1.64-3.29-2.59c-0.57-0.72-1.14-1.43-1.71-2.15c-3.33-3.32-7.03-6.3-10.75-9.23c-1.49-1.18-2.76-2.84-3.92-4.36
		c-0.34-0.27-0.68-0.55-1.01-0.82c-0.22-0.35-0.27-0.75-0.57-1.01c-1.79-1.56-3.48-3.3-5.5-4.62c-1.26-0.74-2.53-1.48-3.79-2.21
		c-2.3-1.82-4.56-3.85-6.77-5.82c-0.72-0.8-1.43-1.6-2.15-2.4c-2.08-1.91-4.15-3.68-5.94-5.88c-0.97-1.19-2.44-1.85-3.41-2.91
		c-0.4-0.61-0.8-1.22-1.2-1.83c-1.3-1.48-2.88-2.73-4.11-4.3c-0.09,0.15-0.25-0.05-0.32-0.13c-0.8-0.65-1.6-1.31-2.4-1.96
		c-0.59-0.53-1.18-1.05-1.77-1.58c-0.82-0.48-1.64-0.97-2.47-1.45c-1.45-1.36-2.9-2.69-4.55-3.86c-0.65-0.46-1.11-1.26-1.71-1.77
		c-1.04-0.88-3.16-1.95-3.98-2.91c-0.9-1.05-1.62-1.92-2.78-2.72c-0.34-0.36-0.67-0.72-1.01-1.08c-0.7-0.3-2.36-0.07-3.29-0.25
		C243.67,126.89,242.9,127.1,242.65,128.06z M243.59,138.68c0.17-0.1,0.34-0.21,0.51-0.32c0.15,0.32,0.29,0.63,0.44,0.95
		c0,0.59,0,1.18,0,1.77c0.93,3.11,1.21,6.26,2.21,9.48c-0.08,0.26,0.06,0.62,0.19,0.88c-0.62,1.73,1.01,4.25,0.76,6.32
		c-0.21,1.8,0.21,4.98,0.89,6.26c0.21,1.35,0.42,2.7,0.63,4.05c-0.02,0.29-0.04,0.59-0.06,0.89c0.76,2.21,1.93,5.22,2.53,7.65
		c0.37,1.5-0.05,2.48,0.38,4.17c1.02,4.03,1.33,7.36,1.83,10.81c0.16,1.06,0.44,2.89,0.38,3.92c0,0.76,0,1.52,0,2.28
		c0.92,3.96,1.68,8.34,2.91,11.95c0.42,1.22,1.69,3.06,1.64,4.43c-0.03,0.99,0.17,2.32,0.44,3.16c-0.36,0.96,0.53,5.17,0.95,6.2
		c-0.36,0.59,0.35,4.06,0.51,4.93c0.03,0.16,0.44,1.39,0.44,1.39c0.11,1.2,0.21,2.4,0.32,3.6c1.59,4.07,2.2,7.86,3.35,11.51
		c0.64,2.03-0.01,3.54,0.57,5.82c0.32,1.24,0.44,2.41,0.63,3.98c0,0.44,0,0.88,0,1.33c0.34,0.86,0.51,2.14,0.76,3.1
		c0.04,0.55,0.08,1.1,0.13,1.64c0.44,1.28,1.05,4.2,1.52,5.82c0.33,1.15,0.32,2.22,0.82,3.22c0.65,1.32,0.78,4.02,1.07,5.37
		c0.11,0.61,0.21,1.22,0.32,1.83c0.02,0,0.04,0,0.06,0c-0.41,1.46,0.34,3.06-0.13,4.87c-0.15,0.57-0.88,3.16-0.88,3.16
		c-0.2,0.28-0.59,0.85-0.57,1.39c0.07,1.55-0.56,5.12-1.14,6.45c0.52,0.95-0.47,2.52-0.32,3.67c0.03-0.05-0.18,1.44-0.13,1.9
		c0.07,0.65-0.33,2.72-0.51,3.41c-0.31,1.25-0.05,2.73-0.25,3.48c-0.18,0.69-0.6,2.33-0.82,3.29c-0.08,0.84-0.17,1.69-0.25,2.53
		c-0.67,2.01-1.19,3.78-1.77,6.01c-0.49,1.87-0.06,3.4-0.95,5.38c0.16,0.29-0.35,6.16-0.57,7.02c-0.1,0.51-0.21,1.01-0.32,1.52
		c-0.19,1.16-0.38,2.32-0.57,3.48c0.07,1.16-0.4,2.86-0.63,3.92c-0.06,0.84-0.13,1.69-0.19,2.53c-0.51,1.01-0.92,3.1-1.33,4.62
		c-0.02,0.91-0.04,1.81-0.06,2.72c-0.26,1.1-1.14,6.8-0.89,7.27c0.35,0.66,0.33,3.99,0,5.44c-0.57,2.5-0.85,4.33-1.52,6.76
		c0.06,0.16-0.04,1.96-0.25,2.65c-0.73,2.4-1.45,4.87-1.96,7.4c-0.67,3.29,0.09,7.65-0.57,11.13c-0.47,2.45-1.15,4.81-1.83,7.71
		c-0.46,1.96-0.29,4.44-1.01,6.32c0,0.55,0,1.1,0,1.64c-0.06-0.38-0.54,1.51-0.63,1.83c-0.41,1.36-0.76,2.81-1.07,4.17
		c-0.02,0.59-0.04,1.18-0.06,1.77c-0.82,2.29-0.76,6.05-1.2,8.09c-0.32,0.19-0.29,0.14-0.63-0.06c-0.13,0.15-0.25,0.29-0.38,0.44
		c0.08,0.23,0.17,0.46,0.25,0.7c0.23,0.12,0.48,0.01,0.69,0.12c0,0.65,0,1.31,0,1.96c-0.17,1.58-0.34,3.16-0.51,4.74
		c-0.39,1.73-0.61,2.92-1.01,5.06c-0.06,0.57-0.13,1.14-0.19,1.71c-0.67,2.12-0.91,3-1.26,4.74c-0.12,0.62,0.08,1.93-0.38,2.15
		c0.15,0.04,0.17,1.21,0.13,1.33c-0.12,0.28-0.21,1.03-0.19,1.2c-0.17-0.15-0.19-0.17-0.25-0.44c-0.13,0.17-0.04,0.01-0.06,0.25
		c-0.02,0-0.04,0-0.06,0c-0.59-1.96-1.53-4.37-2.28-6.38c-0.21-0.38-0.42-0.76-0.63-1.14c-0.17-1.31-0.34-2.61-0.51-3.92
		c-0.47-1.96-0.97-4.24-1.26-6.13c-0.1-1.62-0.21-3.24-0.32-4.87c-1.5-6.18-3.38-12.78-4.93-19.03c-0.04-1.22-0.08-2.45-0.13-3.67
		c-0.34-2.04-0.67-4.09-1.01-6.13c-0.66-2.62-1.8-4.8-2.47-7.52c-0.51-2.57-1.01-5.14-1.52-7.71c0-0.63,0-1.26,0-1.9
		c-0.15-1.31-0.29-2.61-0.44-3.92c-0.04-0.76-0.08-1.52-0.13-2.28c-0.29-0.73-0.75-1.53-0.95-2.47c-0.21-1.56-0.42-3.12-0.63-4.68
		c-0.78-2.52-1.57-5.22-2.34-7.9c-0.21-1.24-0.42-2.49-0.63-3.73c-0.74-2.27-1.52-4.63-2.02-6.89c-0.27-1.2,0.16-2.39,0-3.48
		c-0.31-2.12-0.65-5.07-1.26-7.14c-0.05-0.18-0.25-3.29-0.25-3.29c-0.48-0.33-0.7-1.88-1.01-2.59c-0.6-1.35-0.95-3.03-1.39-4.62
		c-0.22-0.79-0.8-1.52-1.07-2.4c0.39-1.28-0.22-2.92-0.44-4.05c0-0.76,0-1.52,0-2.28c-0.21-1.05-0.37-2.03-0.63-2.91
		c-0.19-0.65,0.13-1.85-0.13-2.53c-0.95-2.48-1.38-6.42-2.53-10.05c0.5-1.05-0.6-5.37-0.82-6.45c-0.02-0.46-0.04-0.93-0.06-1.39
		c-0.56-1.97-1.38-4.35-1.96-6.2c-0.42-2.25-0.84-4.51-1.26-6.77c0.1-0.51,0.38-0.5,0.63-0.82c0.42-1.02-0.13-1.77,0.06-2.84
		c0.21-0.95,0.42-1.9,0.63-2.84c1-2.5,2.11-5.11,2.91-7.65c0.46-1.48,0.34-2.72,0.7-4.17c0.31-1.29,0.99-2.77,1.33-3.98
		c0.46-1.63,0.18-3.09,0.63-4.55c1.24-4.02,2.57-7.79,3.48-11.89c0.72-3.26,0.21-7.76,1.14-10.94c1.57-5.34,3.48-10.58,4.87-15.93
		c0.28-1.07,0.42-1.73,0.57-2.85c0-0.69,0-1.39,0-2.09c0.4-1.16,0.8-2.32,1.2-3.48c0.67-2.06,1.06-4.04,1.83-5.88
		c0.53-2.78,1.05-5.56,1.58-8.35c1.19-4.84,2.66-9.8,4.3-14.29c0.13-1.01,0.25-2.02,0.38-3.03c0.78-2.92,0.63-6.02,1.45-8.91
		c0.76-2.66,1.5-5.94,2.59-8.6c0.67-1.62,1.43-3.25,1.9-5.06c0.31-0.08,0.72-0.09,1.01-0.06c0.04-0.02,0.08-0.04,0.13-0.06
		c-0.13-0.39-0.37-0.34-0.57-0.63c-0.38-0.59,0.29-1.98,0.25-2.78C242.34,143.76,243.44,141.33,243.59,138.68z M273.69,287.38
		c0,0,1.48,2.05,1.52,2.09c-0.48,0.23,0.72,1.4,0.63,1.52c0.09,0.63,0.88,1.27,1.14,1.9c0.63,1.52,1.57,2.72,2.4,4.24
		c-0.12,0.23,0.83,2.49,1.01,2.84c1.2,2.36,2.38,4.95,3.48,7.4c0.33,0.74,0.37,1.54,0.76,2.15c1.29,2,2.81,3.38,3.98,5.5
		c0.7,1.25,0.66,2.58,1.14,3.67c0.41,0.92,1.12,1.61,1.58,2.66c0.84,1.91,1.32,4.04,2.21,5.75c0.24,0.46,0.52,1.7,0.82,2.09
		c0.73,0.93,2.3,3.29,2.4,4.3c1.51,2.12,2.33,4.53,3.67,7.02c0.65,1.21,1.64,2.15,2.28,3.1c0.36,0.89,0.72,1.77,1.07,2.65
		c0.02,0.11,0.04,0.21,0.06,0.32c0.04,0.04,0.08,0.08,0.13,0.13c-0.26,0.01-0.1,0.68-0.25,0.95c-0.8,1.39-1.39,3.03-2.47,4.62
		c-1.55,2.27-2.76,4.46-4.05,6.83c-0.31,0.58-0.15,0.96-0.51,1.52c-0.57,0.89-1.35,2.02-1.77,3.03c-0.97,2.34-1.97,4.53-3.29,6.58
		c-0.25,0.38-0.69,1.48-0.95,1.83c-0.23,0.1-0.46,0.21-0.7,0.32c-0.13,0.34-0.25,0.67-0.38,1.01c-0.89,1.45-1.58,3.07-2.4,4.43
		c-0.42,1.14-0.84,2.28-1.26,3.41c-1.2,1.38-1.88,3.4-2.85,5.18c-1.27,2.34-2.72,4.46-4.11,6.51c-1.15,1.7-1.96,3.83-2.85,5.75
		c-0.27,0.99-0.55,1.98-0.82,2.97c-1.81,1.89-2.54,5.05-4.05,7.27c-1.6,2.37-3.46,5-4.81,7.46c-0.19,0.51-0.38,1.01-0.57,1.52
		c-0.23,0.39-0.77,0.95-0.95,1.39c-0.71,1.76-0.86,3.37-1.71,5.06c-0.27,0.36-0.55,0.72-0.82,1.07c-0.69,1.15-1.29,2.85-2.15,3.79
		c-0.44,0.49-1.02,0.9-1.39,1.46c-0.36,0.54-0.38,1.12-0.69,1.71c-0.3,0.55-1.05,1.21-1.33,1.58c-0.06,0.32-0.13,0.63-0.19,0.95
		c-0.68,1.4-1.6,2.38-2.4,3.86c-0.79,1.45-0.79,2.34-1.71,3.79c-0.56,0.89-1.26,1.99-1.83,3.04c-0.21,0.53-0.42,1.05-0.63,1.58
		c-0.38,0.4-1.01,0.79-1.26,1.45c-0.25-0.03-0.19,0.06-0.32-0.13c-0.11-0.07-0.03-0.16-0.25-0.44c0.54-1.78,0.22-5.05,0.57-7.08
		c0.15-0.91,0.56-1.89,0.82-2.65c0.17-1.05,0.34-2.11,0.51-3.16c0.67-2.27,1.01-4.93,1.39-7.14c0.19-2.74,0.38-5.48,0.57-8.22
		c0.21-1.26,0.42-2.53,0.63-3.79c0.04-0.87,0.08-1.73,0.13-2.59c0.74-2.93,1.47-5.86,2.21-8.79c0.47-2.03,0.4-4.02,0.76-6.01
		c0.42-2.29,1.26-4.68,1.83-7.02c0.23-3.83,0.46-7.67,0.7-11.51c0.51-2.68,1.29-5.53,1.96-8.09c0.17-1.24,0.34-2.49,0.51-3.73
		c0.46-2.19,0.93-4.38,1.39-6.58c0.64-2.94-0.32-5.73,0.19-8.6c0.15-0.84,0.41-1.86,0.57-2.78c0.04-0.93,0.08-1.85,0.13-2.78
		c0.27-1.5,0.81-2.93,1.2-4.36c0.47-1.73,0.6-3.58,0.95-5.25c0.06-1.03,0.13-2.07,0.19-3.1c0.4-2.74,0.89-5.79,1.39-8.66
		c0.04-1.1,0.08-2.19,0.13-3.29c0.54-2.66,1.27-5.58,1.9-7.97c0.48-1.81,0.46-3.35,0.95-4.93c0.34-2.17,0.67-4.34,1.01-6.51
		c0.12-0.6-0.01-1.87,0.51-2.09c-0.38-0.52,0.06-2.06,0.06-3.16c0-1.01,0.24-1.94,0.44-2.66c0.19-1.67,0.38-3.33,0.57-4.99
		c0.14-0.69,0.98-2.53,0.63-2.85c0.02-0.06,0.04-0.13,0.06-0.19C273.39,287.47,273.34,287.51,273.69,287.38z M112.91,286.69
		c2.18-2.95,5.35-5.48,7.84-8.35c0.85-0.98,2.08-1.71,2.85-2.78c5.05-7.06,10.34-13.55,16.25-19.79c0.52-0.55,0.77-1.26,1.2-1.9
		c1.32-1.96,2.71-3.73,3.92-5.88c1-1.78,2.73-3.09,3.92-4.68c1.1-1.45,2.19-2.91,3.29-4.36c0.72-0.91,1.81-1.68,2.72-2.4
		c1.9-1.94,3.79-3.88,5.69-5.82c1.58-2.16,3.19-4.23,4.68-6.45c1.16-1.16,2.32-2.32,3.48-3.48c1.52-2.02,3.03-4.05,4.55-6.07
		c0.65-0.53,1.31-1.05,1.96-1.58c1.18-1.22,2.36-2.44,3.54-3.67c1.48-1.44,3.19-2.68,4.55-4.24c2.05-2.34,4.13-4.79,6.07-7.21
		c0.23-0.46,0.46-0.93,0.7-1.39c0.93-1.25,1.94-2.67,3.03-3.79c1.51-1.55,2.96-3.08,4.43-4.68c0.67-0.59,1.35-1.18,2.02-1.77
		c0.53-0.72,1.05-1.43,1.58-2.15c0.46-0.4,0.93-0.8,1.39-1.2c0.91-1.33,1.81-2.66,2.72-3.98c1.3-1.65,3.06-3.04,4.36-4.68
		c0.04-0.19,0.08-0.38,0.13-0.57c0.89-1.04,2.06-1.97,2.91-3.04c0.23-0.46,0.46-0.93,0.7-1.39c0.68-0.92,1.53-1.63,2.28-2.47
		c0.54-0.61,0.77-1.37,1.2-2.09c0.72-0.78,1.43-1.56,2.15-2.34c0.54-0.7,0.82-1.54,1.39-2.21c1.46-1.75,3.33-3.26,4.8-4.99
		c0.44-0.74,0.89-1.48,1.33-2.21c0.67-0.63,1.35-1.26,2.02-1.9c1.24-1.76,2.46-3.55,3.86-5.18c0.34-0.25,0.67-0.51,1.01-0.76
		c0.46-0.61,0.93-1.22,1.39-1.83c0.55-0.36,1.1-0.72,1.64-1.08c0.65-0.86,1.02-1.73,1.83-2.4c0.08-0.02,0.17-0.04,0.25-0.06
		c0,0.04,0,0.08,0,0.13c0.48,0.38-0.48,3.39-0.32,4.43c0.48,3-2.14,8.4-3.29,11.51c-0.37,1-0.27,1.86-0.57,2.72
		c-0.3,0.78-0.59,1.56-0.89,2.34c-0.12,0.46-0.04,1.17-0.13,1.33c-0.52,0.91-1.33,4.21-1.14,5.44c0.53,3.34-1.8,8.29-2.72,11.89
		c-0.04,0.61-0.08,1.22-0.13,1.83c-1.49,2.82-1.8,6.76-2.85,9.8c0.08,0.2-0.54,4.27-0.76,5.06c-0.34,1.2-0.98,2.3-1.33,3.54
		c-0.58,2.02-0.91,4.53-1.9,6.64c-0.02,0.8-0.04,1.6-0.06,2.4c0.06,0.41-0.93,4.44-1.2,5.18c-0.63,1.75-1.2,3.41-1.9,5.12
		c0.06,0.14-0.46,2.67-0.63,3.1c-0.58,1.44-1.36,3.37-1.83,5.44c-0.23,1-0.54,3.8-0.38,4.49c0.04,0.48,0.08,0.97,0.13,1.45
		c-0.24,0.69-0.72,3.04-0.69,3.67c-0.08,0.82-0.17,1.64-0.25,2.47c-1.14,3.48-2.35,7.39-3.41,11.32c-0.2,0.74-0.05,1.99-0.19,2.53
		c-0.53,1.98-1.09,3.79-1.77,5.75c0.2,0.6-0.23,2.42-0.44,3.1c-1.05,3.4-3.1,7.71-3.35,11.06c-0.06-0.04-0.13-0.08-0.19-0.13
		c0.02,0.11,0.04,0.21,0.06,0.32c-1.46,0.37-3.96,1.15-6.01,1.08c-0.86-0.03-2.67-0.13-3.54,0.19c-2.86,1.04-6.34,1.15-9.04,1.83
		c-1.13,0.29-2.86,0.11-3.54,0c-1.48-0.25-2.99,0.37-4.17,0.57c-0.34-0.04-0.67-0.08-1.01-0.13c-5.1,1.17-10.28,2.19-15.17,3.48
		c-1.75,0.1-3.5,0.21-5.25,0.32c-0.42-0.04-0.84-0.08-1.26-0.13c-1.32,0.28-3.02,0.53-4.17,0.76c-0.78,0.04-1.56,0.08-2.34,0.13
		c-1.82,0.43-3.6,0.88-5.44,1.39c-0.74,0.2-1.68,0.04-2.28,0.19c-0.58,0.15-1.35,0.49-1.77,0.5c-2.29,0.08-4.98-0.53-7.46,0.06
		c-1.64,0.39-3.69,0.92-5.37,1.14c-1.76,0.23-3.36-0.39-4.62-0.13c-2.56,0.54-4.75,0.86-6.7,1.52c-1.4,0.47-3.33,0.02-4.17,0.63
		C113.03,287.03,113.03,286.8,112.91,286.69z M198.64,400.74c-1.63-2.18-3.76-4.23-5.12-6.57c-1.35-2.33-2.88-4.67-4.62-6.64
		c-1.58-1.79-3.23-3.98-5.12-5.44c-0.74-0.63-1.48-1.26-2.21-1.9c-4.12-4.85-7.48-10.32-11.38-15.36c-1.1-1.43-2.86-2.37-3.92-3.86
		c-1.52-2.14-3.42-4.03-4.87-6.2c-0.27-0.55-0.55-1.1-0.82-1.64c-0.99-0.95-1.98-1.9-2.97-2.85c-0.97-1.5-2.4-2.52-3.41-3.92
		c-0.55-0.76-1.03-1.71-1.71-2.34c-0.32-0.29-1.02-0.42-1.26-0.76c-0.85-1.17-1.76-2.16-2.72-3.22c-0.35-0.39-0.91-0.57-1.26-0.95
		c-0.9-0.96-1.56-2.08-2.34-3.16c-0.52-0.72-1.41-1.25-1.9-2.02c-0.49-0.78-0.57-1.52-1.14-2.28c-0.46-0.48-0.93-0.97-1.39-1.45
		c-0.38-0.7-0.76-1.39-1.14-2.09c-0.57-0.77-2.38-2.93-3.1-3.48c-1.29-0.99-2.82-1.93-3.86-3.16c-0.36-0.65-0.72-1.31-1.08-1.96
		c-0.71-1.03-1.67-1.93-2.34-3.03c-0.48-0.81-0.71-1.62-1.27-2.34c-0.76-0.67-1.52-1.35-2.27-2.02c-1-1-1.76-2.31-2.78-3.29
		c-0.71-0.68-1.67-1.26-2.28-2.02c-3.63-4.56-7.36-9.01-10.81-13.72c0.78-1.36,3.53-1.13,5.63-1.83c1.73-0.58,3.62-0.75,5.63-1.33
		c1.13-0.33,2.47-1.07,3.73-1.01c1.43,0.07,2.91,0.38,4.43,0.13c2.23-0.37,5.28-0.8,7.84-1.2c1.92,0,3.84,0,5.75,0
		c1.68-0.53,3.69-0.51,5.44-0.95c2.68-0.67,5.27-1.15,8.16-1.71c2.51-0.02,5.02-0.04,7.52-0.06c7.4-1.54,14.46-4.13,22.57-3.98
		c3.2,0.06,6.27-0.76,9.17-1.58c0.13,0.04,5.05-0.53,5.25-0.57c1.45-0.28,3.22-0.54,4.49-0.25c0.27,0.57,0.6,0.83,0.82,1.45
		c0.51,1.43,0.13,3.23,0.7,4.74c0.23,0.63,0.53,1.87,0.95,2.47c0.08,0.67,0.17,1.35,0.25,2.02c0.25,0.48,0.51,0.97,0.76,1.45
		c0.17,0.51,0.19,2.78,0.19,2.78c0.35,0.43,0.78,1.83,0.76,2.53c-0.05,1.73,0.66,2.79,0.63,4.17c0.15,1.05,0.29,2.11,0.44,3.16
		c0.55,1.74,0.83,3.76,1.39,5.44c0,0.44,0,0.88,0,1.33c0.24,0.61,0.65,2.4,0.63,2.91c-0.08,2.25,0.1,4.08,0.51,6.26
		c0.8,4.33,2.34,8.06,3.54,11.57c0.1,0.89,0.21,1.77,0.32,2.66c0.61,2.08,0.95,4.36,1.2,6.58c-0.02,1.05-0.04,2.11-0.06,3.16
		c0.36,3.16,1.36,5.55,2.09,8.28c0.44,2.23,0.88,4.47,1.33,6.7c0.62,1.43,1.63,3.61,1.45,5.06c0.04-0.04,0.08-0.08,0.13-0.13
		c0.38,0.76,0.22,3.09,0.51,3.54c0.3,0.46,0.08,1.18,0.32,1.83c0.1-0.19,0.11,0.17,0.13,0.19c0.93,1.12,0.47,2.54,0.89,4.62
		c0.61,3.03,0.41,7.32,1.39,10.43c0.44,1.38,0.38,2.73,0.88,4.17c0.41,1.17,1.12,2.41,1.52,3.54c0.4,1.13,0.62,2.73,1.01,3.79
		c0.06,0.76,0.13,1.52,0.19,2.28c0.39,1.44,0.13,2.25,0.51,3.98c-0.02,0.46-0.04,0.93-0.06,1.39c0.63,2.33,1.05,5.33,1.96,7.27
		c0.41,0.87,0.31,2.49,0.63,3.35c0.52,1.39,1.11,3.08,1.45,4.3c0.51,1.83,0.46,3.15,0.95,4.49c0.13,1.66,0.25,3.33,0.38,4.99
		c0.39,2.1,0.84,4.12,1.26,6.2c0.17,1.29,0.34,2.57,0.51,3.86c0.82,2.02,1.64,4.05,2.47,6.07c0.63,1.77,0.04,2.82,0.44,4.36
		c0.25,0.97,0.22,1.49-0.06,2.21c-0.06,0.02-0.13,0.04-0.19,0.06c-0.57-0.42-1.14-0.84-1.71-1.26c-1.19-0.83-2.62-2.51-3.41-3.73
		c-1.12-2.06-2.23-4.13-3.35-6.2c-1.08-1.76-2.69-3.08-3.92-4.68c-0.93-1.39-1.85-2.78-2.78-4.17c-1.82-2.33-4.23-4.28-6.2-6.51
		c-0.63-0.59-1.26-1.18-1.9-1.77c-0.76-1.18-1.52-2.36-2.28-3.54c-1.28-1.33-2.34-2.82-3.48-4.3c-0.84-0.84-1.69-1.69-2.53-2.53
		c-1.11-1.32-2.06-2.69-3.1-4.11c-1.56-1.64-3.12-3.29-4.68-4.93C200.2,401.88,199.21,401.5,198.64,400.74z M270.34,594.84
		c-2.16-3.54-4.13-7.24-6.58-10.5c-1.41-1.88-3.71-3.27-4.93-5.31c-0.82-1.37-1.65-2.75-2.66-3.98c-0.46-0.46-0.93-0.93-1.39-1.39
		c-1.34-2.08-2.38-4.31-3.86-6.26c-0.86-1.14-2.11-1.89-3.1-2.91c-1.16-1.19-1.76-2.84-2.84-4.11c-1.02-1.19-1.99-2.28-2.84-3.66
		c-0.51-0.82-1.36-1.43-1.96-2.15c-0.57-0.86-1.14-1.73-1.71-2.59c-1.2-1.38-2.7-2.55-3.92-3.92c-0.27-0.51-0.55-1.01-0.82-1.52
		c-0.4-0.4-0.8-0.8-1.2-1.2c-1.44-1.87-2.1-4.35-3.86-5.88c0.14-1.71-0.37-3.37-0.76-4.87c-0.5-1.93-0.4-4.17-1.08-6.01
		c-0.68-1.85-1.67-3.85-2.34-5.88c-0.27-1.35-0.55-2.7-0.82-4.05c-0.29-0.74-0.78-1.53-0.76-2.46c0.04-2.05,0.03-4.94-0.63-6.89
		c-0.89-2.64-2.22-5.27-2.97-8.09c-0.5-2.89-1.01-5.77-1.52-8.66c-0.64-1.73-1.31-3.84-1.83-5.62c-0.42-2.45-0.84-4.89-1.26-7.34
		c-1.07-3.46-2.87-6.51-3.86-10.24c-0.23-1.44-0.46-2.87-0.7-4.3c-0.5-1.99-1.04-4.31-1.71-6.01c-0.79-2.01-0.68-4.19-1.33-6.32
		c-0.45-1.48-0.94-3.07-1.52-4.68c-0.39-1.07-1.21-1.98-1.52-3.16c-0.49-1.86-0.73-3.54-1.01-5.37c-0.02-0.7-0.04-1.39-0.06-2.09
		c-0.66-2.01-1.14-4.03-1.77-6.13c-0.08-0.99-0.17-1.98-0.25-2.97c-0.82-3.16-2.21-6.46-3.35-9.42c-0.33-0.86-0.17-1.52-0.44-2.65
		c-0.32-0.82-0.63-1.64-0.95-2.47c-0.04-0.55-0.08-1.1-0.13-1.64c-1.04-3.16-2.11-6.85-2.65-10.12c-0.08-0.04-0.17-0.08-0.25-0.13
		c0.1-0.24,0.12-0.3,0.32-0.44c-0.12,0.26,0.12,0.14,0.25,0.13c-0.09,0.32,0.35,0.19,0.25,0.57c0.76,0.01,1.21,1.03,1.64,1.58
		c0.46,0.59,1.07,0.81,1.64,1.14c0.83,0.47,1.45,1.3,2.02,1.9c3.74,3.88,7.31,8.27,10.81,12.26c1.19,1.36,2.76,4.79,4.17,5.82
		c1.21,0.88,2.41,2,3.41,3.1c0.51,0.56,0.78,1.31,1.33,1.83c2.34,2.23,4.19,4.3,5.75,7.02c0.33,0.57,1.06,0.99,1.52,1.45
		c0.84,0.86,1.56,1.96,2.21,2.85c1.58,2.13,2.2,4.79,3.73,6.64c1.61,1.94,3.58,2.85,5.18,4.74c0.98,1.15,2.12,2.23,3.03,3.41
		c0.16,0.21,0.23,0.67,0.32,0.76c0.7,0.74,1.8,1.77,2.21,2.72c0.19,0.97,0.38,1.94,0.57,2.91c1.58,4.17,2.13,8.5,3.22,12.64
		c0.41,1.55,0.44,3.3,0.76,4.36c0.38,2.23,0.76,4.47,1.14,6.7c0.04,0.74,0.08,1.47,0.13,2.21c1.78,2.62,1.34,7.79,2.65,11.06
		c-0.07,0.15,0.25,2.14,0.38,2.47c0.91,2.18,1.3,5.04,1.64,7.97c0.09,0.81-0.22,1.28,0.13,2.46c0.36,1.24,0.95,2.63,1.52,3.79
		c-0.27,0.45,1.12,3.84,1.33,4.36c-0.24,0.55,0.68,1.79,0.63,2.46c-0.1,1.48,0.54,3.82,1.08,5.31c0.75,2.1,1.05,4.87,1.45,6.7
		c1.47,6.63,2.12,12.18,3.6,18.02c0.08,0.91,0.17,1.81,0.25,2.72c0.34,0.75,0.66,2.45,0.82,3.29c0.17,0.84,0.04,1.5,0.32,2.15
		c0.66,1.56,1.45,3.41,1.9,4.68c0.99,2.81,1.53,6.04,2.15,8.79c0.42,1.85,1.04,3.32,0.38,4.74c0,0.02,0,0.04,0,0.06
		c0.23,0.05,0.25,0.03,0.44-0.06c-0.02,0.14,1.22,4.31,1.39,5c0.41,1.62,1.03,2.88,1.45,4.49c0.44,1.64,1.03,4.53,1.52,5.88
		c0.29,0.82,0.05,2.8,0.19,2.97c0.16,0.19,0.29,0.76,0.19,1.07c-0.07,0.07,0.01,0.06-0.19,0.06c0.02,0.17,0.04,0.34,0.06,0.51
		C272.64,598.78,271.28,596.37,270.34,594.84z M324.01,620.57c-0.28,0.93-0.23,1.94-0.44,2.4c-0.02,0.55-0.04,1.1-0.06,1.64
		c-0.55,1.85-0.63,3.42-1.01,5.06c-0.06,0.53-0.13,1.05-0.19,1.58c0.14,0.21-0.14,2.04-0.31,2.72c-0.1,0.39-1.36,4.91-1.52,5.06
		c-0.4,0.39-0.86,0.42-1.2,0.82c-0.65,0.76-2.07,2.38-2.85,2.91c-1.35,0.91-2.71,1.68-3.85,2.78c-0.79,0.75-1.41,1.74-2.09,2.59
		c-0.06,0.19-0.13,0.38-0.19,0.57c-1.35,1.03-2.96,1.73-4.24,2.97c-1.8,1.74-3.86,3.08-5.75,4.74c-1.35,1.18-2.34,2.76-3.67,3.98
		c-0.78,0.72-2.17,2.55-3.22,2.46c-2.21-3.63-3.09-8.49-4.05-13.15c-0.08-1.27-0.17-2.53-0.25-3.79c-0.86-4.04-2.38-7.81-3.03-11.57
		c-0.81-4.61-0.25-9.61-1.52-13.85c-1.43-4.8-3.31-10.03-4.55-15.05c-0.34-1.38-0.24-2.49-0.57-3.79c-0.27-0.82-0.55-1.64-0.82-2.47
		c-0.11-1.07-0.21-2.15-0.32-3.22c-0.8-3.12-1.6-6.24-2.4-9.36c-0.46-1.14-0.93-2.28-1.39-3.41c-0.08-0.67-0.17-1.35-0.25-2.02
		c-1.28-4.5-1.69-9.24-2.91-13.97c-0.59-2.28-1.93-3.9-2.53-6c-0.59-2.05-0.92-4.3-1.33-6.26c-0.06-0.8-0.13-1.6-0.19-2.4
		c-1.36-4.63-1.48-9.16-2.59-13.97c-0.87-3.76-1.82-7.78-2.78-11.38c-0.4-2.15-0.8-4.3-1.2-6.45c-0.51-1.75-1.01-3.5-1.52-5.25
		c-0.5-0.9-1.03-2.17-1.33-3.23c-0.76-2.7-0.55-5.62-1.2-8.28c-0.55-2.26-1.35-4.58-1.83-6.76c-0.97-4.38-1.16-8.36-2.47-12.33
		c0.4-1.51-0.89-5.98-1.2-7.4c-0.06-0.86-0.13-1.73-0.19-2.59c-0.39-1.39-0.88-3.46-1.33-4.8c-0.41-1.24-0.13-2.3-0.57-3.41
		c-0.21-0.51-0.42-1.01-0.63-1.52c-0.41-1.65-0.34-3.3-1.08-4.62c0.1-1.3,0.96-2.35,1.46-3.35c0.59-1.41,1.18-2.82,1.77-4.24
		c1.09-1.66,2.68-2.9,3.54-4.87c1.78-4.07,3.77-7.84,6.07-11.38c0.67-1.22,1.35-2.45,2.02-3.67c0.75-1.05,1.8-1.97,2.53-3.04
		c1.96-2.88,2.7-6.48,4.11-9.93c0.51-1.25,1.68-2.44,2.47-3.48c0.36-0.71,0.72-1.43,1.08-2.15c0.9-1.42,2.06-2.87,2.97-4.3
		c0.23-0.57,0.46-1.14,0.7-1.71c0.98-1.64,1.99-3.39,2.85-5.19c0.72-1.52,0.88-3.27,1.71-4.68c2.99-5.08,5.87-10.31,8.98-15.36
		c1.05-2.42,2.11-4.85,3.16-7.27c0.28-0.73,0.93-1.34,1.39-1.9c0.29-0.59,0.59-1.18,0.89-1.77c0.55-0.72,1.15-1.54,1.64-2.34
		c0.72-1.56,1.43-3.12,2.15-4.68c2.22-4.46,4.83-8.81,7.4-12.96c0.81-1.32,1.25-2.76,2.15-3.98c0.25-0.34,1.1-0.57,1.45-0.82
		c1.35-1.29,2.7-2.57,4.05-3.86c1.05-1.45,2.11-2.91,3.16-4.36c1.2-1.31,2.4-2.61,3.6-3.92c0.98-1.29,1.86-2.63,2.97-3.79
		c1.49-1.55,3.11-2.86,4.49-4.55c0.48-0.42,0.97-0.84,1.45-1.26c2.36-3.14,4.6-6.32,6.89-9.48c0.61-0.59,1.22-1.18,1.83-1.77
		c1.01-1.34,1.97-2.73,3.03-4.05c0.78-0.86,1.56-1.73,2.34-2.59c2.98-4.44,6.12-8.44,9.67-12.27c0.85-0.92,1.3-2.17,2.09-3.16
		c1.52-1.93,3.44-3.65,4.99-5.56c0.36-0.55,0.72-1.1,1.07-1.64c2.98-2.83,5.81-5.77,8.35-9.04c0.74-0.65,1.48-1.31,2.21-1.96
		c1.06-1.42,2.06-2.75,3.1-4.24c0.65-0.93,1.75-1.64,2.47-2.53c1.16-1.45,2.29-3.51,3.98-4.36c0.1,0.39,0.08,0.32,0.51,0.32
		c0,0.01,0.21,0.91,0.06,1.08c-0.54,0.59-0.96,6.91-1.33,8.16c0.32,0.84,0.23,4.6-0.25,5.82c-1.37,3.48-2.33,7.61-3.35,11.51
		c-0.34,1.29,0.22,2.34,0.25,3.35c-0.08,0.19-0.17,0.38-0.25,0.57c-0.45,1.86,0.04,2.87-0.51,4.24c0.04,0.23,0.08,0.46,0.13,0.7
		c-0.13,0.4-0.12,1.84-0.25,2.02c-0.53,0.73,0.08,1.79-0.51,3.29c-1.27,3.22-1.32,7.99-2.4,13.02c0.16,0.41,0.28,5.57,0.25,5.63
		c-0.83,2.17-0.21,4.59-0.95,7.78c0,0.74,0,1.48,0,2.21c-0.24,0.88-0.5,1.72-0.82,2.85c-0.18,0.64,0,1.97-0.13,2.27
		c-0.4,1.01-1.14,3.63-1.26,4.74c-0.25,0.19-0.33,0.02-0.7-0.06c-0.02,0.13-0.04,0.25-0.06,0.38c0.17,0.04,0.34,0.08,0.51,0.13
		c-0.52,2.6-1.2,7.02-1.77,9.04c0.17-0.02,0.01,0.02,0.19-0.06c-0.1,0.84-0.25,2.54-0.7,3.54c0.27,0.43-0.03,2.54-0.19,3.22
		c0.39,1.14-0.03,6.64-0.38,8.03c-0.32,1.26,0.22,2.66,0.06,3.48c-0.16,0.87-0.43,1.52-0.63,2.28c-0.17,1.24-0.34,2.49-0.51,3.73
		c-0.43,1.04-1.05,2.47-1.52,3.73c-0.08,0.53-0.17,1.05-0.25,1.58c-0.43,0.73-1.07,2.42-1.26,3.48c-0.06,0.93-0.13,1.85-0.19,2.78
		c-0.36,0.97-0.56,2.3-0.82,3.29c-0.04,0.65-0.08,1.31-0.13,1.96c-0.36,1.33-0.46,3.44-0.76,4.74c0.04,0.53,0.08,1.05,0.13,1.58
		c-0.31,0.36-0.47,2.93-0.7,3.6c-0.13-0.18-0.1,0.14-0.13,0.25c-0.24,1.24-0.96,2.25-0.7,3.73c-0.4,1.48-0.8,2.95-1.2,4.43
		c0.16,0.4-1.37,7.42-1.58,7.9c-0.21,1.88-0.42,3.75-0.63,5.63c0.02,0.36,0.04,0.72,0.06,1.07c-0.29,1-0.22,2.41-0.57,3.73
		c-1.03,3.9-1.67,9.45-2.34,13.09c-0.06,1.5-0.13,2.99-0.19,4.49c-0.95,2.96-0.51,6.69-1.52,9.99c-0.63,2.06-0.85,4.75-1.39,6.7
		c-0.21,1.71-0.42,3.41-0.63,5.12c-1.13,2.21-1.79,5.83-2.47,8.6c-0.93,3.82-0.18,8.22-0.88,11.06c-1.25,5-1.39,8.43-2.59,13.15
		c-0.4,1.58,0.21,2.44,0,3.54c-0.61,3.15-0.65,5.32-1.58,8.85c0.33,0.93-0.59,5.5-0.88,6.32c-0.02,0.59-0.04,1.18-0.06,1.77
		c-0.22,0.98-0.62,1.57-0.76,2.65c-0.14,1.14-0.21,3.17-0.82,4.68c0.13,0.29-0.29,2.69-0.44,3.16c-0.34,0.67-0.67,1.35-1.01,2.02
		c0.3,0.81-0.3,2.84-0.38,3.22c-0.32,1.69-0.27,2.79-0.63,4.36c-0.13,0.38-0.25,0.76-0.38,1.14c0,0.04,0,0.08,0,0.13s0,0.08,0,0.13
		c-0.37,0.48-0.12,2.46-0.31,3.03c-0.08,0.15-0.17,0.3-0.25,0.44c-0.01,3.79-1.06,9.02-2.09,12.96c0.46,1.35-0.89,3.13-0.63,4.55
		c0.19,1.02-0.64,6.44-1.39,7.27c-0.06,0.88-0.13,1.77-0.19,2.65c0.02,0.11,0.04,0.21,0.06,0.32c-0.41,1.49-0.61,3.06-0.89,4.36
		c-0.15,0.68,0.07,1.43-0.19,2.15c-0.15,0.31-0.3,0.63-0.44,0.95c-0.35,1.62,0.13,2.79-0.76,4.11c0.28,0.34-0.13,4.62-0.25,5.06
		c-0.49,1.77-0.36,2.69-0.95,4.24c-0.89,2.35-1.84,4.73-1.83,7.14c-0.13,0.99-0.25,1.98-0.38,2.97c0,0-0.36,3.25-0.38,3.29
		c-0.08,0.31-0.17,0.63-0.25,0.95c0.19,0.81-0.69,2.72-0.57,3.98C325.87,616.02,324.6,618.63,324.01,620.57z M405.19,428.94
		c-1.46,5.12-3.39,9.94-5.56,14.42c0.12,0.26-1.06,3.63-1.14,3.73c-0.08,0.17-0.17,0.34-0.25,0.51c0.06,0.87-2.82,7.82-3.67,8.98
		c0.3,0.38-0.61,1.28-0.5,1.83c-0.4,1.69-0.8,3.37-1.2,5.06c-0.62,1.5-1.24,4.32-2.09,5.25c-0.43,0.47-0.67,1.08-1.01,1.64
		c-0.04,0.04-0.08,0.08-0.13,0.13c0,0-1.39,3.84-1.9,4.49c-1.25,1.59-1.7,3.96-2.53,5.88c-1.04,2.41-2.11,4.48-2.97,7.65
		c-0.69,2.51-1.61,4.87-3.1,7.65c-1.54,2.86-3.83,5.82-5.06,8.98c-1.13,2.9-1.79,5.79-2.91,8.66c-0.31,0.79-0.19,1.4-0.63,2.15
		c-1.16,1.96-2.02,4.35-2.91,6.77c-0.91,2.47-2.62,4.16-3.48,6.64c-0.56,1.62-1.07,3.11-1.58,4.55c-0.72,2.03-0.77,3.88-1.64,5.75
		c-0.93,1.99-2,4.25-2.97,6.13c-0.23,0.27-0.46,0.55-0.69,0.82c-0.59,1.42-1.13,3.48-1.9,4.93c-0.64,1.22-1.61,2.56-2.02,3.6
		c-0.64,1.61-0.88,3.91-1.77,5.19c-0.15,0.53-0.3,1.05-0.44,1.58c-1.34,2.04-2.87,6.47-3.79,9.04c-0.19,0.91-0.38,1.81-0.57,2.72
		c-0.32,0.74-0.92,1.85-1.2,2.53c-0.1,0.61-0.21,1.22-0.31,1.83c-0.93,2.29-2.36,4.55-3.35,6.64c-0.06,0.42-0.13,0.84-0.19,1.26
		c-0.44,1.09-0.86,2.15-1.39,3.22c-0.47,0.76-0.93,1.52-1.39,2.28c-0.71,1.77-1.41,3.76-2.09,5.18l-0.57,2.72
		c-0.73,1.21-1.57,2.36-2.03,3.41c-1.14,2.62-2.16,5.42-3.35,8.41c-0.49,1.23-0.56,2.64-1.26,3.67c0-3.27,1.01-6.52,1.58-9.48
		c0.25-1.3,0.48-2.62,0.76-3.79c0.18-0.79,0.02-1.74,0.31-2.59c0.37-1.04,1.06-2.45,1.39-3.67c0.04-0.57,0.08-1.14,0.13-1.71
		c0.17-0.83,0.58-2.15,0.82-2.97c0.3-1-0.42-2.24-0.13-3.54c0.79-3.56,1.3-7.01,2.15-10.18c0.04-1.1,0.08-2.19,0.13-3.29
		c0.39-1.53,0.84-3.29,1.27-4.87c-0.2-0.67,0.2-1.72,0.31-2.59c0.37-2.68,0.68-5.85,1.33-8.22c0.04-0.67,0.08-1.35,0.13-2.02
		c0.57-1.89,0.57-4.67,0.95-6.77c0.06-0.71,0.13-1.43,0.19-2.15c0.54-1.4,1.79-2.83,2.59-4.04c0.25-0.61,0.51-1.22,0.76-1.83
		c0.64-1.18,1.74-2.26,2.4-3.48c0.63-1.16,0.98-2.21,1.64-3.41c0.57-0.76,1.14-1.52,1.71-2.28c0.66-1.09,0.86-2.39,1.45-3.48
		c0.59-0.8,1.18-1.6,1.77-2.4c0.23-0.57,0.46-1.14,0.7-1.71c0.36-0.49,0.72-0.97,1.07-1.46c0.11-0.32,0.21-0.63,0.32-0.95
		c0.17-0.11,0.34-0.21,0.51-0.32c1.33-1.8,1.55-4.27,2.72-6.26c0.54-0.92,1.33-1.96,1.83-2.85c0.55-1.31,1.1-2.61,1.64-3.92
		c0.46-0.82,1.15-1.71,1.46-2.53c0.58-1.59,0.79-2.96,1.64-4.3c1.86-2.9,3.49-6.13,5.37-9.1c0.85-1.35,2.12-2.42,2.97-3.86
		c0.52-0.89,0.72-2.4,1.07-3.6c0.3-1.05,1.09-2.47,1.64-3.48c0.51-0.92,1.33-1.82,1.9-2.72c0.48-0.77,0.59-1.63,1.14-2.34
		c0.73-0.95,1.65-1.76,2.28-2.84c1.56-2.71,2.5-5.93,3.92-8.73c1.24-2.43,3.35-4.27,4.68-6.57c2.42-4.2,3.73-9.1,6.01-13.47
		c0.62-1.18,1.63-2.34,2.21-3.54c0.31-0.66,0.11-1.46,0.44-2.02c1.05-1.77,2.58-3.72,3.41-5.69c0.71-1.68,1.52-3.86,2.85-4.93
		C405.11,428.9,405.15,428.92,405.19,428.94z M417.02,395.43c0.04,0.16,0.89,1.33,0.89,1.33c0.07,1.27-1.09,1.61-1.71,3.16
		c-0.63,1.58-0.41,2.38-1.08,3.73c-0.78,1.57-2.75,3.6-3.92,5.25c-0.06,0.25-0.13,0.51-0.19,0.76c-0.55,0.9-1.4,1.99-1.71,2.78
		c-0.29,0.73-0.64,1.97-1.2,2.65c0.08,0.06-0.57,2.02-0.57,2.02c-0.85,1.27-1.84,2.47-2.72,3.86c-0.25,0.57-0.51,1.14-0.76,1.71
		c-0.29,0.27-0.59,0.55-0.89,0.82c-0.8,1.2-1.1,2.61-1.83,3.79c-0.63,1.02-1.48,2-2.08,3.1c-0.36,0.65-0.84,3.16-1.52,3.92
		c-0.88,1-1.52,2.41-2.28,3.66c-0.1,0.32-0.21,0.63-0.31,0.95c-1.88,2.48-2.96,5.88-4.62,8.73c-0.19,0.61-0.38,1.22-0.57,1.83
		c-0.81,1.61-1.21,3.32-2.21,4.99c-0.76,1.26-1.62,3.11-2.59,4.3c-0.19,0.23-0.64,0.23-0.82,0.44c-0.57,0.66-1.35,1.9-1.58,2.28
		c-1.94,3.22-2.9,6.96-4.68,10.05c-0.1-0.19-0.38,0.31-0.38,0.31c-0.1,0.99-2.22,3.12-2.78,4.24c-0.06,0.12-0.88,1.25-0.82,1.33
		c-0.02,0.19-2.52,4.53-2.84,4.99c0.02,0.06,0.04,0.13,0.06,0.19c-0.48,1.35-1.07,3.07-1.77,4.62c-0.65,1.43-2.16,3.2-3.29,4.43
		c-0.73,0.79-1.24,2.91-1.9,3.79c-0.9,1.22-1.99,2.89-2.84,4.3c-0.88,1.45-1.07,3.77-2.09,5.12c-1.18,1.58-1.34,2.66-2.34,4.43
		c-0.08,0.36-0.17,0.72-0.25,1.07c-0.38,0.61-1.1,1.36-1.39,2.02c-0.74,1.66-1,3.35-2.09,4.55c0.15,0.11-0.46,1.52-0.57,1.71
		c-1.08,1.83-2.37,3.61-3.54,5.44c-0.89,1.4-1.14,3.17-2.02,4.62c-0.8,1.31-1.83,2.7-2.59,3.98c-0.28,0.59-0.55,1.18-0.82,1.77
		c-0.02-0.02-0.04-0.04-0.06-0.06c0.28-0.82-0.01-2,0.25-2.97c0.3-0.99,0.59-1.98,0.88-2.97c0.02-0.51,0.04-1.01,0.06-1.52
		c0.36-1.6,0.99-3.79,1.33-5.37c0.35-1.65,0.28-3.38,0.51-5.18c0.11-0.84,0.71-1.82,0.7-2.53c-0.04-1.66,0.54-4.4,0.88-5.94
		c0.06-1.94,0.13-3.88,0.19-5.82c0.25-0.76,0.68-1.94,0.89-2.85c0.04-0.51,0.08-1.01,0.13-1.52c0.1-0.17,0.21-0.34,0.31-0.51
		c-0.04-0.21-0.08-0.42-0.13-0.63c0.23-1.36,0.73-3.33,1.07-5.12c0.17-0.88-0.02-1.87,0.32-2.59c0.02-0.68,0.04-1.35,0.06-2.02
		c0.31-1.34,0.48-2.8,0.7-4.17c-0.06-0.84-0.13-1.69-0.19-2.53c0.69-3.17,1.76-6.76,2.65-9.67c0.46-1.51,0.21-3.17,0.38-4.36
		c0.15-0.34,0.29-0.68,0.44-1.01c0.41-1.76,0.77-3.87,1.2-5.25c0.21-0.69,0.02-1.33,0.13-2.02c0.21-1.32,0.65-3.32,0.88-4.74
		c0.08-0.46-0.25-1.09-0.13-1.39c0.51-1.22,0.52-2.51,0.76-3.92c-0.02-0.46-0.04-0.93-0.06-1.39c0.35-1.26,0.16-2.48,0.51-4.05
		c0.22-1,0.63-2.43,0.44-3.48c-0.11-0.62-0.26-1.05-0.31-1.71c1.43-1.34,1.76-5.88,2.34-8.22c0.06-0.86,0.13-1.73,0.19-2.59
		c0.41-1.56,0.07-3.44,0.51-5.5c0.37-1.73,0.86-3.92,1.33-5.63c0.45-1.64,0.31-2.98,0.76-4.55c0.25-0.78,0.51-1.56,0.76-2.34
		c0.08-0.8,0.17-1.6,0.25-2.4c0.6-2.03,1.5-4.29,1.2-6.7c-0.35-2.79,2.01-8.54,1.2-10.05c0.05-0.4,0.13-0.34,0.44-0.44
		c0.06-0.78,0.13-1.56,0.19-2.34c0.34-1.13,0.89-2.34,1.26-3.35c0.26-0.7,0.02-1.23,0.25-2.02c0.47-1.12,0.93-2.23,1.39-3.35
		c0.31-1.32,0.23-3.18,0.57-4.24c0.26-0.82,0.74-2.06,0.7-3.03c-0.13-2.87,0.17-5.67,0.57-8.73c0.13-0.96-0.23-2.3-0.06-3.29
		c0.4-2.29,0.37-4.41,0.82-6.51c0.11-0.51-0.13-0.95-0.06-1.26c0.29-0.76,0.59-1.52,0.88-2.28c0.06-0.7,0.13-1.39,0.19-2.09
		c0.41-1.22,0.87-2.9,1.33-4.05c0.02-0.55,0.04-1.1,0.06-1.64c0.18-0.91,0.29-1.97,0.51-2.85c0.27-1.13,0.82-2.27,1.01-3.48
		c-0.02-0.93-0.04-1.86-0.06-2.78c0.36-1.39,0.53-3.52,0.76-4.93c-0.02-0.38-0.04-0.76-0.06-1.14c0.29-0.86,0.38-2.33,0.25-3.16
		c-0.24-1.57,0.23-2.54,0.06-3.98c-0.08-0.11-0.17-0.21-0.25-0.32c0.04-0.94,0.57-2.77,0.76-3.79c0-0.65,0-1.31,0-1.96
		c0.28-1.18,0.78-2.58,0.95-3.67c0-0.63,0-1.26,0-1.9c0.44-1.05,0.91-2.95,1.14-4.05c0-1.01,0-2.02,0-3.03
		c0.66-1.27,0.79-3.52,0.95-4.8c0.27-2.2-0.49-3.53,0.06-5.63c0.13-0.19,0.25-0.38,0.38-0.57c0.22-0.68-0.03-1.47,0.19-2.21
		c0.19-0.65,0.64-1.21,0.89-1.71c0.38-0.77,0.35-1.62,0.57-2.34c0.32-1.03,0.63-2.07,0.95-3.1c0.28-1.23,0.51-3.52,0.32-4.68
		c-0.06-0.67-0.13-1.35-0.19-2.02c0.27-0.82,0.65-1.93,0.89-3.03c0.33-1.57,0.03-3.56,1.07-4.49c-0.05,0.2,2.81,5.81,3.1,7.21
		c0.52,2.54-0.36,4.62,0.25,6.64c1.21,3.99,1.6,7.95,3.1,11.76c0.15,0.88,0.3,1.77,0.44,2.65c0.21,1.71,0.42,3.41,0.63,5.12
		c0.04,0.04,0.08,0.08,0.13,0.13c0.18,2.73,1.18,4.71,1.9,7.65c0.28,1.14-0.11,2.36,0.25,3.1c0.46,0.94,0.38,1.81,0.76,2.78
		c0.36,0.8,0.72,1.6,1.07,2.4c-0.03,0.07,0.57,2.15,0.57,2.15c0.4,2.53,0.8,5.06,1.2,7.59c0.04,0.08,0.63,3.1,0.63,3.1
		c0.22,2.36,1.15,6.19,2.15,8.6c0.56,1.35,1.17,2.23,1.58,3.86c0.48,1.9,0.58,5.34,1.52,7.21c0.17,1.47,0.34,2.95,0.51,4.43
		c0.42,1.09,0.55,2.52,1.01,3.48c0.41,0.85,1.06,2.26,1.33,3.35c0.48,1.92,0.59,3.73,0.95,5c-0.02,0.17-0.04,0.34-0.06,0.51
		c0.45,0.77,0.79,2.37,0.88,2.85c0.43,2.1,0.47,4.44,1.01,6.32c0.69,2.37,1.51,4.51,2.21,6.7c0.27,0.83,0.02,1.85,0.19,2.53
		c0.6,2.33,1.44,5.24,1.33,7.27C415.32,391.25,416.66,393.96,417.02,395.43z M466.58,253.31c1.34,0.26,3.89,0.18,4.87,0.13
		c0.11,0.13,0,0.05,0.19,0.13c0.59,2.83-2.36,7.31-3.35,10.31c-0.87,2.65-0.88,5.44-2.15,8.09c-1.31,2.74-3.43,5.96-4.8,8.73
		c-0.96,1.93-0.69,4.08-2.02,5.88c0.3,0.28-0.38,1.08-0.32,1.2c-0.12,0.96-1.14,4.27-1.83,5.44c-2.13,3.59-3.92,8.51-5.12,12.2
		c-0.69,2.13-0.69,4.56-1.9,6.64c-0.23,0.7-0.46,1.39-0.7,2.09c-0.59,0.78-0.73,1.85-1.01,2.53c-0.88,2.14-2.31,4.27-3.41,6.2
		c-0.17,0.72-0.34,1.43-0.51,2.15c-0.46,1.14-0.93,2.28-1.39,3.41c-0.17,0.63-0.34,1.26-0.5,1.9c-1.11,1.96-2.12,4.89-3.04,7.08
		c-0.36,1.71-0.72,3.41-1.07,5.12c-1.41,4.09-3.43,8.68-5.12,13.21c-0.04,0.4-0.08,0.8-0.13,1.2c-0.25,0.72-0.65,1.37-0.89,2.09
		c-0.04,0.53-0.08,1.05-0.13,1.58c-1.43,3.63-2.65,7.78-3.79,10.87c-2.15,5.83-3.83,11.01-5.63,16.44c-0.53,1.61-1.9,2.81-2.02,4.05
		c-0.06,0.06-0.05-0.01-0.06-0.06c-0.28,0.12-0.19,0.22-0.44,0.25c0,0.04,0,0.08,0,0.13c-0.76-1.13-0.52-2.7-0.82-4.17
		c-0.28-1.37-0.79-3.82-1.2-5.44c-0.46-1.8-0.08-3.53-0.7-5.12c-0.42-1.09-0.97-1.95-1.33-3.16c-0.15-0.99-0.29-1.98-0.44-2.97
		c-0.69-2.81-1.29-6.08-2.02-8.85c-0.27-2-0.55-4-0.82-6.01c-0.37-1.19-1.22-2.46-1.77-3.54c-0.43-0.85-0.65-2.87-0.95-3.92
		c-0.06-0.88-0.13-1.77-0.19-2.65c-0.35-1.36-0.75-3.55-1.14-5.12c-0.04-0.51-0.08-1.01-0.13-1.52c-0.71-1.87-1.31-3.78-2.02-5.5
		c-0.26-0.64-0.28-1.43-0.57-1.96c0,0-1.02-5.31-1.2-6.01c-0.57-2.24-1.3-4.97-1.26-7.65c-0.02,0.23-0.04,0.46-0.06,0.7
		c-0.66-1.64-0.57-3.96-1.14-5.69c-0.53-1.22-1.05-2.44-1.58-3.67c-0.19-1.56-0.38-3.12-0.57-4.68c-0.5-1.7-1.4-4.21-1.83-6.26
		c-0.6-2.82-0.47-5.22-1.2-8.16c-0.9-3.6-2.12-7.6-2.97-11.19c-0.39-1.66-0.44-3.62-0.31-5.44c-0.04-0.93-0.08-1.85-0.13-2.78
		c-0.76-2.62-2.21-5.14-2.91-7.84c-0.44-1.72-0.54-5.16-1.26-6.45c0.02-0.65,0.04-1.31,0.06-1.96c-0.04-0.18,0-0.17,0.06-0.38
		c1.29-0.23,2.2,0.15,3.6-0.06c0.86-0.13,2.19-0.59,3.48-0.38c0.97,0.06,1.94,0.13,2.91,0.19c3.23-0.75,6.84-0.65,10.43-1.2
		c2.63,0.27,5.27,0.55,7.9,0.82c1.64-0.06,3.29-0.13,4.93-0.19c1.79-0.52,3.78-0.12,5.56-0.32c0.7-0.02,1.39-0.04,2.09-0.06
		c1.63,0.3,4,0.07,5.75,0.38c0.58,0.1,1.45,0.32,2.21,0.19c1.2,0,2.4,0,3.6,0c4.96-0.93,12.79-1.32,17.89-0.82
		C462.37,253.39,464.47,253.35,466.58,253.31z M384.71,253.11c-1.34,2.12-3.48,3.84-4.93,5.69c-0.43,0.54-0.67,0.95-1.14,1.52
		c-0.27,0.19-0.55,0.38-0.82,0.57c-0.06,0.19-0.13,0.38-0.19,0.57c-0.37,0.34-0.89,0.36-1.2,0.76c-0.76,1.01-1.52,2.02-2.28,3.03
		c-0.66,0.68-1.56,1.24-2.09,2.09c-0.87,1.38-1.65,2.86-2.65,3.86c-0.68,0.67-1.44,1.04-2.21,1.64c-0.06,0.19-0.13,0.38-0.19,0.57
		c-0.9,1.13-2.02,2.14-2.91,3.48c-0.33,0.49-1.15,0.79-1.52,1.26c-0.72,0.95-1.47,1.78-2.21,2.72c-0.19,0.24-0.73,0.37-0.82,0.51
		c-0.02,0.17-0.04,0.34-0.06,0.51c-0.23,0.15-0.46,0.29-0.7,0.44c0.19,0.16-1.65,2.2-1.96,2.72c-0.08-0.14-1.46,1.04-1.46,1.33
		c0.01,0.54-1.09,1.14-1.52,1.52c0.23,0.14-0.2,0.36-0.25,0.44c-0.91,1.3-1.97,2.4-2.59,3.6c-0.07-0.16-0.25,0.19-0.31,0.25
		c-0.55,0.63-1.1,1.26-1.64,1.9c-0.38,0.32-0.76,0.63-1.14,0.95c-1.43,2.16-3.01,3.89-4.55,5.94c-1.12,1.49-1.56,2.94-2.72,4.36
		c-3.11,3.81-6.07,7.44-9.29,10.94c-1.6,2.3-3.2,4.59-4.8,6.89c-4.51,4.09-8.42,9.02-12.52,13.66c-1.4,1.59-4.51,7.11-6.32,7.14
		c-0.87,0.27-2.04-2.63-2.47-3.29c-2.21-3.38-4.1-7.36-6.01-11c-2.43-4.64-4.39-9.86-6.39-14.86c-0.62-1.55-1.7-3.41-2.72-4.68
		c-0.42-0.53-1.07-1.03-1.39-1.64c-1.4-2.68-2.56-5.86-3.98-8.41c-0.59-1.64-1.18-3.29-1.77-4.93c-0.98-1.79-2.32-3.61-3.35-5.44
		c-0.25-0.78-0.51-1.56-0.76-2.34c-0.41-0.7-1-1.53-1.39-2.21c-0.06-0.36-0.13-0.72-0.19-1.07c-0.6-1.15-1.54-1.89-2.28-2.85
		c0-2.45,2.33-3.75,3.79-4.8c2.41-1.74,5.4-5.31,7.14-7.78c1.49-2.1,3.01-4.53,4.99-6.13c1.56-1.37,3.12-2.74,4.68-4.11
		c2.56-2.81,3.98-6.65,6.38-9.61c3.84-4.73,8.67-8.42,12.33-13.34c0.84-1.13,1.37-2.68,2.47-3.54c1.69-1.33,4.14-3.03,5.31-4.81
		c0.73-1.11,2.25-4.26,3.67-4.42c-0.08-0.02-0.17-0.04-0.25-0.06c0.32-1.08,3.54-3.65,4.43-4.68c1.62-1.87,3.11-3.7,5.06-5.25
		c0.42-0.4,0.84-0.8,1.27-1.2c0.85-0.4,3.16,0.52,3.92,0.7c1.18,0.15,2.36,0.29,3.54,0.44c0.78,0.4,3.83,1.67,4.93,1.64
		c3.58-0.1,6.22,1.55,9.04,2.53c2.17,0.4,4.34,0.8,6.51,1.2c0.84,0.13,1.69,0.25,2.53,0.38c2.15,0.8,4.75,1.34,6.89,2.09
		c0.82,0.13,1.64,0.25,2.47,0.38c1.11,0.51,2.33,1.12,3.48,1.26c0.28,0.41,0.93,3.14,0.7,4.24c0.04,0.74,0.08,1.48,0.13,2.21
		c0.42,0.95,0.37,2.82,0.76,3.92c0.34,0.72,0.67,1.43,1.01,2.15c0.66,2.34,1.04,5.12,0.95,7.21c-0.07,1.67,0.93,3.16,0.63,4.43
		c0.3,1.67,0.59,3.33,0.88,5C384.67,251.58,384.92,252.78,384.71,253.11z M406.27,199.44c1.34-0.27,1.36,0.41,2.4,0.88
		c1.4,0.64,3,1.83,3.86,2.85c0.39,0.46,0.67,1.09,1.14,1.45c1.06,0.84,2.4,1.5,3.41,2.21c1.07,0.76,3.5,2.4,3.35,3.41
		c0.93,0.09,2.56,1.82,3.22,2.47c0.58,0.57,1.75,0.81,2.47,1.33c1.02,0.74,2.03,1.49,3.1,2.34c1.48,1.18,2.65,3.33,4.3,4.68
		c2.39,1.95,5.33,3.37,8.09,5.06c0.56,0.34,1.03,1.39,1.58,1.96c0.57,0.6,1.3,1.14,1.9,1.71c2.21,2.11,4.87,3.63,7.27,5.56
		c0.98,0.79,1.77,1.68,2.72,2.4c1.57,1.19,2.75,2.98,4.3,4.17c1.76,1.36,3.49,2.47,5.12,3.92c0.71,0.63,2.63,2.37,3.03,2.34
		c0,0.22-0.01,0.49,0.25,0.57c-0.04,0.04-0.08,0.08-0.13,0.13c-0.61,0.63-2.85,0.26-4.3,0.44c-3.2,0.41-5.7-0.61-9.23-0.06
		c-1.05-0.06-2.11-0.13-3.16-0.19c-1.07,0.44-2.59,0.08-3.86,0.32c-5.59,1.06-10.88,0.76-16.25,0.13c-2.36,0.11-4.72,0.21-7.08,0.32
		c-0.77,0.2-1.82,0.54-2.72,0.44c-1.5-0.04-2.99-0.09-4.49-0.13c-2.56-0.54-6.2-0.58-8.6-0.57c-2.06,0.01-4.28,1.14-6.13,1.07
		c-2.21,0-4.42,0-6.64,0c-2.05,0.39-4.68,0.56-6.58,0.06c-0.75-1.29-0.79-3.28-1.01-4.74c0.04-0.13,0.08-0.25,0.13-0.38
		c-0.99-2.41-0.6-5.74-0.88-8.16c-0.1-0.8-0.48-1.27-0.63-1.96c-0.21-0.97-0.08-1.84-0.5-2.59c-0.24-0.42-0.65-0.94-0.82-1.46
		c-0.15-0.95-0.29-1.9-0.44-2.85c-0.55-2.4,0.57-7.4-1.07-8.79c0.5-1.13,2.01-1.81,2.84-2.65c1.13-1.15,1.57-3.12,2.78-4.17
		c0.96-0.83,2.28-1.16,3.29-1.96c1.22-0.97,2.54-1.82,3.86-2.72c0.63-0.59,1.27-1.18,1.9-1.77
		C401.08,204.37,403.36,201.58,406.27,199.44z M367.58,205.76c2.56-0.64,5.38-0.35,8.28-1.01c3.68-0.84,7.35-2.03,10.94-2.66
		c2.94-0.51,6.4-0.7,8.72-1.26c0.76-0.19,1.68-0.15,1.83,0.19c0.08-0.15,0.17-0.3,0.25-0.44c0.02,0.35-0.1,0.46,0.19,0.57
		c-1.56,2.09-4.85,4.62-7.52,6.51c-1.65,1.17-3.67,1.82-4.87,3.41c-0.62,0.82-0.57,1.86-1.26,2.53c-0.62,0.6-1.28,1.55-1.96,2.02
		c-0.51,0.36-1.4,0.64-1.77,0.95c-0.52,0.43-0.77,0.94-1.52,1.01c-0.67,0.06-1.51-0.34-1.9-0.51c-0.76-0.08-1.52-0.17-2.28-0.25
		c-1-0.32-2.29-0.91-3.29-1.2c-2.68-0.78-5.78-1.16-8.73-1.96c-1.34-0.36-2.31-0.02-3.6-0.51c-1.38-0.52-2.87-1.43-4.24-2.02
		c-1.26-0.55-4.32-0.63-4.87-0.63c-0.68-0.01-1.39-0.81-1.64-0.44c-0.19-0.15-0.38-0.3-0.57-0.44c1.17-2.04,7.88-1.22,11.38-1.77
		c1.23-0.2,3.19-0.26,4.62-0.7C365.04,206.76,366.21,206.1,367.58,205.76z M248.46,133.37c0,0,0.96,0.54,1.2,0.7
		c1.04,0.68,1.83,1.72,3.03,2.47c0.98,0.61,2.08,2.02,3.16,2.72c0.15,0.25,0.3,0.51,0.44,0.76c1.01,0.56,2.04,1.68,3.1,2.34
		c1.3,0.81,3.3,1.76,4.36,2.97c1.57,1.8,3.77,3.11,5.25,5c2.42,3.09,5.24,5.75,7.97,8.53c1.21,1.24,2.89,2.21,3.98,3.54
		c0.94,1.14,2.07,2.4,3.16,3.48c0.53,0.52,1.32,0.81,1.9,1.27c1.34,1.06,2.38,2.33,3.79,3.35c0.78,0.36,1.56,0.72,2.34,1.08
		c0.36,0.32,0.72,0.63,1.07,0.95c0.97,0.63,1.94,1.26,2.91,1.9c2.28,1.91,4.13,4.56,6.07,6.83c1.1,0.99,2.19,1.98,3.29,2.97
		c0.42,0.27,0.96,0.31,1.33,0.63c0.93,0.82,1.56,2,2.78,2.53c-0.04,0.2,0.07,0.04-0.06,0.19c0.32,0.21,0.63,0.42,0.95,0.63
		c1.27,1.29,2.48,2.54,3.92,3.67c1.04,0.81,1.78,2.1,2.78,2.97c0.52,0.45,1.39,0.75,1.83,1.26c0.53,0.63,1.05,1.26,1.58,1.9
		c2.22,1.77,4.66,3.43,6.95,5.12c1.53,1.12,2.89,2.86,4.17,3.98c0.23,0.21,0.76,1.33,0.76,1.33c-0.15,1.69-2.01,2.1-2.91,3.48
		c-1.79,2.75-4.4,5.38-6.89,7.33c-0.52,0.41-0.45,1.02-0.88,1.45c-0.84,0.83-1.64,1.62-2.21,2.72c-0.27,0.51-0.99,2.31-1.39,2.53
		c-0.22,0.33-0.75,0.03-1.08,0.32c-0.9,0.77-2.36,1.84-3.1,2.72c-1.15,1.38-2.05,2.87-3.16,4.3c-0.78,0.89-1.56,1.77-2.34,2.66
		c-0.08,0.23-0.17,0.46-0.25,0.69c-1.07,1.17-2.78,2.07-3.48,3.41c-0.09,0.17-1.69,1.2-2.02,1.58c-2.27,2.61-4.37,6-6.32,8.35
		c-1.01,1.22-1.2,2.87-2.28,3.92c-1.31,1.28-2.26,2.42-3.6,3.67c-0.91,0.85-2.13,1.49-2.97,2.4c-2.8,3.04-4.7,6.14-7.14,9.48
		c-1.22,1.66-3.17,2.71-4.55,4.05c-0.09,0.17-0.02,0.01,0.06,0.19c-0.55,0.32-1.1,0.63-1.64,0.95c-0.5-0.59-0.27-1.49-0.57-2.34
		c-0.68-1.93-0.81-3.75-1.39-5.82c-0.85-3.01-1.57-6.62-2.21-9.8c-0.39-1.93-0.23-3.8-0.57-5.31c-0.54-2.46-0.08-5.05-0.76-7.21
		c-0.57-1.81-0.95-3.85-1.52-5.82c-0.46-1.14-0.93-2.28-1.39-3.41c-0.52-1.68-0.17-3.28-0.63-5.06c-0.36-1.39-0.6-2.68-0.89-3.92
		c-0.08-1.2-0.17-2.4-0.25-3.6c-0.26-1.24-0.62-2.61-0.82-3.73c-0.36-2-0.1-3.63-0.57-5.37c-0.77-2.88-1.83-5.71-2.84-8.6
		c-0.71-2.01-0.96-4.9-1.46-6.96c-0.17-2.63-0.34-5.27-0.5-7.9c-0.58-3.15-1.18-6.22-1.77-9.1c-0.08-1.18-0.17-2.36-0.25-3.54
		c-0.68-2.35-1.56-4.96-2.28-7.33c-0.35-1.16-0.16-2.51-0.51-3.79c-0.34-1.16-0.67-2.32-1.01-3.48c-0.17-2.25-0.34-4.51-0.5-6.77
		c-1.16-5.07-1.69-10.3-2.91-15.11c0-0.53,0-1.05,0-1.58c-0.2-1.06-0.34-2.45-0.7-3.54c-0.04-0.51-0.08-1.01-0.13-1.52
		c0.11-0.28,0.04-0.34,0.25-0.5C248.06,133.32,248.3,133.37,248.46,133.37z"/>
	<g>
		<path fill="#858A93" d="M646.28,307.36h-64.16v58.71h73.12v4.75h-77.87V242.84h77.87v4.75h-73.12v55.02h64.16V307.36z"/>
		<path fill="#858A93" d="M781.42,370.81h-4.75v-63.84c-0.06-9.54-2.15-16.64-6.29-21.29c-4.13-4.65-10.71-6.98-19.73-6.98
			c-10.43,0-18.96,4.6-25.58,13.79c-3.93,5.5-6.53,11.59-7.82,18.26v60.06h-4.83v-95.1h4.83v22.5c3.22-7.73,7.82-13.71,13.8-17.93
			c5.98-4.22,12.6-6.33,19.86-6.33c7.97,0,14.49,1.76,19.55,5.27s8.39,9.26,9.98,17.23c2.81-6.86,7.38-12.32,13.71-16.39
			c6.33-4.07,13.42-6.11,21.27-6.11c10.25,0,17.88,2.9,22.89,8.7s7.54,14.5,7.6,26.1v62.05h-4.75v-61.64
			c0-10.42-2.1-18.13-6.29-23.14c-4.19-5-10.77-7.45-19.73-7.33c-11.54,0.18-20.69,4.77-27.42,13.79
			c-3.87,5.21-5.98,10.24-6.33,15.1V370.81z"/>
		<path fill="#858A93" d="M944.95,372.57c-7.68,0-14.72-2.07-21.14-6.2s-11.44-9.8-15.07-17.01c-3.63-7.21-5.45-15.21-5.45-23.99
			v-3.96c0-8.79,1.76-16.84,5.27-24.17c3.52-7.32,8.35-13.04,14.5-17.14c6.15-4.1,12.86-6.15,20.13-6.15
			c10.6,0,19.28,3.78,26.02,11.34c6.74,7.56,10.11,17.49,10.11,29.79v5.01h-71.28v5.18c0,7.72,1.63,14.87,4.88,21.45
			c3.25,6.58,7.73,11.74,13.45,15.48c5.71,3.74,11.91,5.61,18.59,5.61c6.39,0,11.82-1.06,16.3-3.19s8.45-5.4,11.91-9.82l3.34,2.37
			C969.41,367.44,958.89,372.57,944.95,372.57z M943.19,278.7c-9.26,0-17.11,3.44-23.55,10.33c-6.45,6.89-10.23,15.66-11.34,26.32
			h66.27v-1.14c0-6.44-1.36-12.44-4.09-17.97s-6.47-9.84-11.25-12.92C954.46,280.24,949.11,278.7,943.19,278.7z"/>
		<path fill="#858A93" d="M1079.39,279.23l-6.15-0.53c-8.09,0-14.85,2.62-20.3,7.86s-9.02,12.57-10.72,21.99v62.26h-4.75v-95.1h4.75
			v19.78c2.58-6.62,6.45-11.87,11.6-15.73c5.16-3.87,11.63-5.8,19.42-5.8c2.75,0,4.98,0.33,6.68,0.98L1079.39,279.23z"/>
		<path fill="#858A93" d="M1191.59,370.81c-1.17-4.04-1.76-9.84-1.76-17.4c-3.75,6.09-8.88,10.81-15.38,14.15
			s-13.86,5.01-22.06,5.01c-8.79,0-15.86-2.39-21.23-7.16c-5.36-4.77-8.04-11-8.04-18.68c0-8.73,3.94-15.72,11.82-20.96
			c7.88-5.24,18.35-7.92,31.42-8.04h23.47v-13.89c0-7.97-2.5-14.15-7.51-18.54s-12.17-6.59-21.49-6.59
			c-8.67,0-15.91,2.23-21.71,6.68c-5.8,4.45-8.7,9.96-8.7,16.52l-4.75-0.18c0-7.73,3.4-14.3,10.2-19.69
			c6.8-5.39,15.12-8.09,24.96-8.09c10.25,0,18.4,2.56,24.43,7.69c6.03,5.13,9.14,12.35,9.32,21.67v45.44
			c0,10.43,0.82,17.52,2.46,21.27v0.79H1191.59z M1152.39,367.82c8.91,0,16.57-1.99,22.98-5.98c6.42-3.98,11.24-9.58,14.46-16.79
			v-22.59h-21.97c-13.59,0-23.99,2.7-31.2,8.09c-5.86,4.39-8.79,9.87-8.79,16.44c0,5.8,2.31,10.72,6.94,14.77
			C1139.44,365.8,1145.3,367.82,1152.39,367.82z"/>
		<path fill="#858A93" d="M1267.05,370.81h-4.75v-135h4.75V370.81z"/>
		<path fill="#858A93" d="M1329.86,322.3c0-15.17,3.19-27.03,9.58-35.55c6.39-8.53,15.15-12.79,26.28-12.79
			c7.15,0,13.46,1.61,18.94,4.83c5.48,3.22,9.92,8.03,13.32,14.41v-57.39h4.75v135h-4.75v-15.21c-3.22,5.39-7.65,9.57-13.27,12.52
			s-12.01,4.44-19.16,4.44c-11.02,0-19.72-4.36-26.1-13.1c-6.39-8.73-9.58-20.71-9.58-35.95V322.3z M1334.78,324.14
			c0,13.48,2.67,24.13,8,31.95c5.33,7.82,12.89,11.73,22.68,11.73c7.85,0,14.56-1.74,20.13-5.23c5.57-3.49,9.7-8.6,12.39-15.34
			V302.7c-5.45-16-16.23-23.99-32.34-23.99c-9.73,0-17.3,3.84-22.72,11.51C1337.49,297.89,1334.78,309.2,1334.78,324.14z"/>
	</g>
	<g>
		<path fill="#2B9681" d="M552.02,563.39v-55.8c0-13.08,3.51-22.74,10.53-28.98c7.02-6.24,16.11-9.36,27.27-9.36
			c11.4,0,20.43,2.91,27.09,8.73c6.66,5.82,9.99,12.93,9.99,21.33c0,2.88-0.45,4.8-1.35,5.76c-0.9,0.96-2.43,1.44-4.59,1.44
			c-3.72,0-5.7-1.5-5.94-4.5c-0.12-1.8-0.36-3.54-0.72-5.22c-0.36-1.68-1.08-3.57-2.16-5.67c-1.08-2.1-2.49-3.93-4.23-5.49
			c-1.74-1.56-4.17-2.85-7.29-3.87c-3.12-1.02-6.72-1.53-10.8-1.53c-17.28,0-25.92,9.12-25.92,27.36v55.8
			c0,18.36,8.88,27.54,26.64,27.54c5.04,0,9.24-0.69,12.6-2.07c3.36-1.38,5.82-3.39,7.38-6.03c1.56-2.64,2.61-4.89,3.15-6.75
			c0.54-1.86,0.99-4.29,1.35-7.29c0.36-3.12,2.34-4.68,5.94-4.68c2.16,0,3.69,0.51,4.59,1.53c0.9,1.02,1.35,2.97,1.35,5.85
			c0,8.52-3.39,15.72-10.17,21.6c-6.78,5.88-15.93,8.82-27.45,8.82c-11.04,0-20.01-3.12-26.91-9.36
			C555.47,586.31,552.02,576.59,552.02,563.39z"/>
		<path fill="#2B9681" d="M690.8,596.15V473.57c0-2.88,1.98-4.32,5.94-4.32s5.94,1.44,5.94,4.32v122.58c0,1.44-0.6,2.58-1.8,3.42
			c-1.2,0.84-2.58,1.26-4.14,1.26c-1.68,0-3.09-0.42-4.23-1.26C691.37,598.73,690.8,597.59,690.8,596.15z"/>
		<path fill="#2B9681" d="M777.74,474.74c0-1.42,0.39-2.69,1.17-3.81c0.78-1.12,1.89-1.68,3.33-1.68h72.18
			c1.44,0,2.55,0.53,3.33,1.59c0.78,1.06,1.17,2.3,1.17,3.72c0,1.54-0.39,2.87-1.17,3.98c-0.78,1.12-1.89,1.68-3.33,1.68h-30.06
			v115.92c0,1.44-0.6,2.58-1.8,3.43c-1.2,0.84-2.58,1.26-4.14,1.26c-1.68,0-3.09-0.42-4.23-1.26c-1.14-0.84-1.71-1.98-1.71-3.43
			V480.23h-30.24c-1.32,0-2.4-0.53-3.24-1.59C778.16,477.57,777.74,476.27,777.74,474.74z"/>
		<path fill="#2B9681" d="M932.89,596.15V473.57c0-2.88,1.98-4.32,5.94-4.32s5.94,1.44,5.94,4.32v122.58c0,1.44-0.6,2.58-1.8,3.42
			c-1.2,0.84-2.58,1.26-4.14,1.26c-1.68,0-3.09-0.42-4.23-1.26C933.46,598.73,932.89,597.59,932.89,596.15z"/>
		<path fill="#2B9681" d="M1023.97,596.69c0-1.32,0.36-2.7,1.08-4.14l59.94-112.32h-54.36c-1.32,0-2.4-0.54-3.24-1.62
			c-0.84-1.08-1.26-2.4-1.26-3.96c0-1.44,0.39-2.7,1.17-3.78c0.78-1.08,1.89-1.62,3.33-1.62h65.34c3,0,4.5,1.26,4.5,3.78
			c0,1.44-0.48,3-1.44,4.68l-59.76,112.14h58.86c1.44,0,2.55,0.54,3.33,1.62c0.78,1.08,1.17,2.34,1.17,3.78
			c0,1.44-0.39,2.73-1.17,3.87c-0.78,1.14-1.89,1.71-3.33,1.71h-69.84C1025.41,600.83,1023.97,599.45,1023.97,596.69z"/>
		<path fill="#2B9681" d="M1174.45,596.15v-122.4c0-1.44,0.54-2.55,1.62-3.33c1.08-0.78,2.34-1.17,3.78-1.17h64.08
			c3,0,4.5,1.74,4.5,5.22c0,1.56-0.39,2.91-1.17,4.05c-0.78,1.14-1.89,1.71-3.33,1.71h-57.6v49.5h28.26c1.44,0,2.55,0.51,3.33,1.53
			c0.78,1.02,1.17,2.31,1.17,3.87c0,3.24-1.5,4.86-4.5,4.86h-28.26v49.86h57.6c1.32,0,2.4,0.54,3.24,1.62
			c0.84,1.08,1.26,2.4,1.26,3.96c0,3.6-1.5,5.4-4.5,5.4h-64.08c-1.44,0-2.7-0.42-3.78-1.26
			C1174.99,598.73,1174.45,597.59,1174.45,596.15z"/>
		<path fill="#2B9681" d="M1327.09,596.15v-122.4c0-3,1.98-4.5,5.94-4.5c3.36,0,6.48,2.76,9.36,8.28l48.6,95.76v-99.72
			c0-2.88,1.98-4.32,5.94-4.32c3.96,0,5.94,1.44,5.94,4.32v122.58c0,1.44-0.6,2.58-1.8,3.42c-1.2,0.84-2.58,1.26-4.14,1.26
			c-3,0-5.64-2.28-7.92-6.84l-50.04-97.38v99.54c0,1.44-0.6,2.58-1.8,3.42c-1.2,0.84-2.58,1.26-4.14,1.26
			c-1.68,0-3.09-0.42-4.23-1.26C1327.66,598.73,1327.09,597.59,1327.09,596.15z"/>
	</g>
	<g>
	</g>
	<g>
	</g>
	<g>
	</g>
	<g>
	</g>
	<g>
	</g>
	<g>
	</g>
</g>
</svg>
